<svg class="animated" id="freepik_stories-data-processing" xmlns="http://www.w3.org/2000/svg" xmlns:xlink="http://www.w3.org/1999/xlink" viewBox="0 0 500 500" version="1.1" xmlns:svgjs="http://svgjs.com/svgjs"><style>svg#freepik_stories-data-processing:not(.animated) .animable {opacity: 0;}svg#freepik_stories-data-processing.animated #freepik--Smoke--inject-2 {animation: 1.5s Infinite  linear floating;animation-delay: 0s;}svg#freepik_stories-data-processing.animated #freepik--Data--inject-2 {animation: 1.5s Infinite  linear wind;animation-delay: 0s;}            @keyframes floating {                0% {                    opacity: 1;                    transform: translateY(0px);                }                50% {                    transform: translateY(-10px);                }                100% {                    opacity: 1;                    transform: translateY(0px);                }            }                    @keyframes wind {                0% {                    transform: rotate( 0deg );                }                25% {                    transform: rotate( 1deg );                }                75% {                    transform: rotate( -1deg );                }            }        </style><g id="freepik--Machine--inject-2" class="animable" style="transform-origin: 302.675px 321.47px;"><path d="M300.69,230h7.63a1,1,0,0,1,1,1v5.09a0,0,0,0,1,0,0h-9.63a0,0,0,0,1,0,0V231A1,1,0,0,1,300.69,230Z" style="fill: rgb(191, 191, 191); stroke: rgb(38, 50, 56); stroke-linecap: round; stroke-linejoin: round; transform-origin: 304.505px 233.045px;" id="elbivzm1fy87i" class="animable"></path><rect x="322.63" y="219.99" width="7.25" height="15.43" style="fill: rgb(191, 191, 191); stroke: rgb(38, 50, 56); stroke-linecap: round; stroke-linejoin: round; transform-origin: 326.255px 227.705px;" id="elu65ughuo0qs" class="animable"></rect><rect x="320.98" y="216.43" width="10.55" height="4.94" style="fill: rgb(153, 153, 153); stroke: rgb(38, 50, 56); stroke-linecap: round; stroke-linejoin: round; transform-origin: 326.255px 218.9px;" id="eli76riewfg7f" class="animable"></rect><rect x="270.26" y="223.25" width="2.77" height="12.16" style="fill: rgb(117, 117, 117); stroke: rgb(38, 50, 56); stroke-linecap: round; stroke-linejoin: round; transform-origin: 271.645px 229.33px;" id="elsvitmcq582a" class="animable"></rect><rect x="256.91" y="223.25" width="2.77" height="12.16" style="fill: rgb(117, 117, 117); stroke: rgb(38, 50, 56); stroke-linecap: round; stroke-linejoin: round; transform-origin: 258.295px 229.33px;" id="elzd5j5buhz6b" class="animable"></rect><rect x="283.61" y="223.25" width="2.77" height="12.16" style="fill: rgb(117, 117, 117); stroke: rgb(38, 50, 56); stroke-linecap: round; stroke-linejoin: round; transform-origin: 284.995px 229.33px;" id="elfw86anszapq" class="animable"></rect><path d="M341.85,236.67v10.75H245.58V236.67a3.11,3.11,0,0,1,3.11-3.11h90.05a3.11,3.11,0,0,1,3.06,2.52A3.81,3.81,0,0,1,341.85,236.67Z" style="fill: rgb(153, 153, 153); transform-origin: 293.715px 240.49px;" id="elukbtn9ljkoi" class="animable"></path><g style="clip-path: url(&quot;#freepik--clip-path--inject-2&quot;); transform-origin: 315.55px 241.75px;" id="elf5g0n8hdvz" class="animable"><g id="elh6g55s0l975"><path d="M341.85,236.67v10.75h-52.6v-7.86a3.48,3.48,0,0,1,3.48-3.48H341.8A3.81,3.81,0,0,1,341.85,236.67Z" style="fill-opacity: 0.7; opacity: 0.2; transform-origin: 315.55px 241.75px;" class="animable"></path></g></g><path d="M341.85,236.67v10.75H245.58V236.67a3.11,3.11,0,0,1,3.11-3.11h90.05a3.11,3.11,0,0,1,3.06,2.52A3.81,3.81,0,0,1,341.85,236.67Z" style="fill: none; stroke: rgb(38, 50, 56); stroke-linecap: round; stroke-linejoin: round; transform-origin: 293.715px 240.49px;" id="el4bjfkh5i331" class="animable"></path><path d="M287.37,225.13H255.92a1.88,1.88,0,0,1-1.88-1.88h0a1.88,1.88,0,0,1,1.88-1.88h31.45a1.88,1.88,0,0,1,1.88,1.88h0A1.88,1.88,0,0,1,287.37,225.13Z" style="fill: rgb(191, 191, 191); stroke: rgb(38, 50, 56); stroke-linecap: round; stroke-linejoin: round; transform-origin: 271.645px 223.25px;" id="el5f3g88ii2ob" class="animable"></path><path d="M243.31,244.41H343.84a7.11,7.11,0,0,1,7.11,7.11V417a0,0,0,0,1,0,0H236.2a0,0,0,0,1,0,0V251.52A7.11,7.11,0,0,1,243.31,244.41Z" style="fill: rgb(191, 191, 191); transform-origin: 293.575px 330.705px;" id="eloct4kmsw0v" class="animable"></path><g style="clip-path: url(&quot;#freepik--clip-path-2--inject-2&quot;); transform-origin: 294.04px 330.705px;" id="elkqy2ngq079" class="animable"><g id="elwi8h4wpqph"><path d="M351,251.52V417H304.5V259.3a8.85,8.85,0,0,1,8.85-8.85h37.51A6.35,6.35,0,0,1,351,251.52Z" style="fill-opacity: 0.7; opacity: 0.2; transform-origin: 327.75px 333.725px;" class="animable"></path></g><g id="elnv7fhyvs94"><path d="M350.08,248.09h-113a7.09,7.09,0,0,1,6.23-3.68H343.84A7.12,7.12,0,0,1,350.08,248.09Z" style="fill: rgb(255, 255, 255); opacity: 0.4; transform-origin: 293.58px 246.25px;" class="animable"></path></g></g><path d="M243.31,244.41H343.84a7.11,7.11,0,0,1,7.11,7.11V417a0,0,0,0,1,0,0H236.2a0,0,0,0,1,0,0V251.52A7.11,7.11,0,0,1,243.31,244.41Z" style="fill: none; stroke: rgb(38, 50, 56); stroke-linecap: round; stroke-linejoin: round; transform-origin: 293.575px 330.705px;" id="elf7cnpfi8wp" class="animable"></path><g id="elrnu6ugynpsm"><circle cx="263.1" cy="395.55" r="16.26" style="fill: rgb(153, 153, 153); stroke: rgb(38, 50, 56); stroke-linecap: round; stroke-linejoin: round; transform-origin: 263.1px 395.55px; transform: rotate(-80.83deg);" class="animable"></circle></g><polygon points="206.13 294.54 180.07 294.54 160.07 262.99 226.13 262.99 206.13 294.54" style="fill: rgb(153, 153, 153); stroke: rgb(38, 50, 56); stroke-linecap: round; stroke-linejoin: round; transform-origin: 193.1px 278.765px;" id="el9aadtllgskf" class="animable"></polygon><path d="M259.84,409.19H235.29A55.21,55.21,0,0,1,180.07,354V294.54h26.07V351a30.91,30.91,0,0,0,30.91,30.91h22.79a13.65,13.65,0,0,1,13.64,13.65h0A13.64,13.64,0,0,1,259.84,409.19Z" style="fill: rgb(191, 191, 191); transform-origin: 226.775px 351.865px;" id="elqn008sxkyah" class="animable"></path><g style="clip-path: url(&quot;#freepik--clip-path-3--inject-2&quot;); transform-origin: 234.775px 351.865px;" id="elpksr7ruoys" class="animable"><g id="ellrtbfrrm3v"><path d="M273.48,395.55a13.64,13.64,0,0,1-13.64,13.64H237.65a24.92,24.92,0,0,0-13-20.81A55.19,55.19,0,0,1,196.07,340V294.54h10.07V351a30.91,30.91,0,0,0,30.91,30.91h22.79A13.65,13.65,0,0,1,273.48,395.55Z" style="fill-opacity: 0.7; opacity: 0.2; transform-origin: 234.775px 351.865px;" class="animable"></path></g></g><path d="M259.84,409.19H235.29A55.21,55.21,0,0,1,180.07,354V294.54h26.07V351a30.91,30.91,0,0,0,30.91,30.91h22.79a13.65,13.65,0,0,1,13.64,13.65h0A13.64,13.64,0,0,1,259.84,409.19Z" style="fill: none; stroke: rgb(38, 50, 56); stroke-linecap: round; stroke-linejoin: round; transform-origin: 226.775px 351.865px;" id="els7xjspku41" class="animable"></path><line x1="180.07" y1="315.36" x2="206.14" y2="315.36" style="fill: none; stroke: rgb(38, 50, 56); stroke-linecap: round; stroke-linejoin: round; transform-origin: 193.105px 315.36px;" id="elz1ecyfiqds" class="animable"></line><line x1="180.07" y1="337.58" x2="206.14" y2="337.58" style="fill: none; stroke: rgb(38, 50, 56); stroke-linecap: round; stroke-linejoin: round; transform-origin: 193.105px 337.58px;" id="elj60wrw0tsxb" class="animable"></line><line x1="180.07" y1="360.28" x2="206.74" y2="357.11" style="fill: none; stroke: rgb(38, 50, 56); stroke-linecap: round; stroke-linejoin: round; transform-origin: 193.405px 358.695px;" id="elhvkxr3futeo" class="animable"></line><line x1="188.59" y1="383.46" x2="211.37" y2="368.21" style="fill: none; stroke: rgb(38, 50, 56); stroke-linecap: round; stroke-linejoin: round; transform-origin: 199.98px 375.835px;" id="eloa6khls46d" class="animable"></line><line x1="206.74" y1="401.2" x2="219.94" y2="376.74" style="fill: none; stroke: rgb(38, 50, 56); stroke-linecap: round; stroke-linejoin: round; transform-origin: 213.34px 388.97px;" id="elw9rkmndu0ck" class="animable"></line><path d="M228,408.72s9.09-10.58,4.74-26.82" style="fill: none; stroke: rgb(38, 50, 56); stroke-linecap: round; stroke-linejoin: round; transform-origin: 230.959px 395.31px;" id="ellp8w4widd4" class="animable"></path><path d="M251.33,409.19s6.72-13.43,0-27.29" style="fill: none; stroke: rgb(38, 50, 56); stroke-linecap: round; stroke-linejoin: round; transform-origin: 252.823px 395.545px;" id="el7tmbib6c518" class="animable"></path><g id="elbqpoagsm40k"><polygon points="181.67 292.06 195.21 292.06 204.97 265.3 167.29 265.3 181.67 292.06" style="fill: rgb(255, 255, 255); opacity: 0.4; transform-origin: 186.13px 278.68px;" class="animable"></polygon></g><path d="M287.93,299.7H252.31a3.83,3.83,0,0,1-3.83-3.82h0a3.84,3.84,0,0,1,3.83-3.83h35.62a3.83,3.83,0,0,1,3.83,3.83h0A3.82,3.82,0,0,1,287.93,299.7Z" style="fill: rgb(117, 117, 117); stroke: rgb(38, 50, 56); stroke-linecap: round; stroke-linejoin: round; transform-origin: 270.12px 295.875px;" id="el3cvmzcrtuux" class="animable"></path><path d="M288.56,292.93H255.18a3.13,3.13,0,1,0,0,6.26h33.38a3.13,3.13,0,0,0,0-6.26Z" style="fill: rgb(38, 50, 56); transform-origin: 271.87px 296.06px;" id="el9xplh7lgckl" class="animable"></path><rect x="248.48" y="315.36" width="43.27" height="53.93" rx="3.08" style="fill: rgb(153, 153, 153); stroke: rgb(38, 50, 56); stroke-linecap: round; stroke-linejoin: round; transform-origin: 270.115px 342.325px;" id="elzx85vrl5s4a" class="animable"></rect><path d="M287.93,279.7H252.31a3.83,3.83,0,0,1-3.83-3.82h0a3.84,3.84,0,0,1,3.83-3.83h35.62a3.83,3.83,0,0,1,3.83,3.83h0A3.82,3.82,0,0,1,287.93,279.7Z" style="fill: rgb(117, 117, 117); stroke: rgb(38, 50, 56); stroke-linecap: round; stroke-linejoin: round; transform-origin: 270.12px 275.875px;" id="el67p73sxn942" class="animable"></path><path d="M288.56,272.93H255.18a3.13,3.13,0,1,0,0,6.26h33.38a3.13,3.13,0,0,0,0-6.26Z" style="fill: rgb(38, 50, 56); transform-origin: 271.87px 276.06px;" id="elu2r2hsroz2g" class="animable"></path><path d="M359.63,419.37v7.1H225.07v-7.1a4.35,4.35,0,0,1,4.35-4.35H355.27A4.36,4.36,0,0,1,359.63,419.37Z" style="fill: rgb(117, 117, 117); transform-origin: 292.35px 420.745px;" id="el4qjdne6h80n" class="animable"></path><g style="clip-path: url(&quot;#freepik--clip-path-4--inject-2&quot;); transform-origin: 273.17px 417.86px;" id="eljxw4gi940h" class="animable"><g id="elg1wtiuioe65"><path d="M321.27,415v3.32a2.39,2.39,0,0,1-2.39,2.4H225.07v-1.37a4.35,4.35,0,0,1,4.35-4.35Z" style="fill: rgb(255, 255, 255); opacity: 0.4; transform-origin: 273.17px 417.86px;" class="animable"></path></g></g><path d="M359.63,419.37v7.1H225.07v-7.1a4.35,4.35,0,0,1,4.35-4.35H355.27A4.36,4.36,0,0,1,359.63,419.37Z" style="fill: none; stroke: rgb(38, 50, 56); stroke-linecap: round; stroke-linejoin: round; transform-origin: 292.35px 420.745px;" id="elxjerioyu1cf" class="animable"></path><g id="elphbmic8wsli"><g style="opacity: 0.2; transform-origin: 266.73px 345.6px;" class="animable"><path d="M266.74,328.11a17.49,17.49,0,1,0,17.48,17.48A17.49,17.49,0,0,0,266.74,328.11Zm13.56,16h-7a5.57,5.57,0,0,0-1.33-2.4l1.12-8.22A13.66,13.66,0,0,1,280.3,344.14Zm-10-11.7-1,7.68a5.38,5.38,0,0,0-1.44-.2,5.67,5.67,0,0,0-2.33.51l-4.7-7.09a13.34,13.34,0,0,1,9.51-.9Zm-12,2.44,4.9,7.39a5.76,5.76,0,0,0-.89,1.87h-9.16A13.6,13.6,0,0,1,258.32,334.88ZM253.17,347h9.16a5.71,5.71,0,0,0,.89,1.88l-4.9,7.39A13.61,13.61,0,0,1,253.17,347Zm7.61,10.81,4.7-7.09a5.66,5.66,0,0,0,2.33.5,5.81,5.81,0,0,0,1.44-.19l1,7.68a13.49,13.49,0,0,1-9.51-.9Zm12.29-.18L272,349.45a5.55,5.55,0,0,0,1.33-2.41h7A13.66,13.66,0,0,1,273.07,357.67Z" id="el6048zsgnvd9" class="animable" style="transform-origin: 266.73px 345.6px;"></path></g></g><g id="el4uz6beg9n65"><rect x="252.24" y="348.78" width="12.53" height="2.9" style="fill: rgb(191, 191, 191); stroke: rgb(38, 50, 56); stroke-linecap: round; stroke-linejoin: round; transform-origin: 258.505px 350.23px; transform: rotate(-56.44deg);" class="animable"></rect></g><g id="elyhaw8tlaqz9"><rect x="261.3" y="350.23" width="12.53" height="2.9" style="fill: rgb(191, 191, 191); stroke: rgb(38, 50, 56); stroke-linecap: round; stroke-linejoin: round; transform-origin: 267.565px 351.68px; transform: rotate(-97.72deg);" class="animable"></rect></g><g id="elt1wugjl0sma"><rect x="252.24" y="333.61" width="12.53" height="2.9" style="fill: rgb(191, 191, 191); stroke: rgb(38, 50, 56); stroke-linecap: round; stroke-linejoin: round; transform-origin: 258.505px 335.06px; transform: rotate(56.44deg);" class="animable"></rect></g><g id="elz6ni1xikq7k"><rect x="261.3" y="332.16" width="12.53" height="2.9" style="fill: rgb(191, 191, 191); stroke: rgb(38, 50, 56); stroke-linecap: round; stroke-linejoin: round; transform-origin: 267.565px 333.61px; transform: rotate(97.72deg);" class="animable"></rect></g><rect x="267.56" y="341.2" width="12.53" height="2.9" style="fill: rgb(191, 191, 191); stroke: rgb(38, 50, 56); stroke-linecap: round; stroke-linejoin: round; transform-origin: 273.825px 342.65px;" id="elefo1oe2841s" class="animable"></rect><rect x="247.56" y="341.2" width="12.53" height="2.9" style="fill: rgb(191, 191, 191); stroke: rgb(38, 50, 56); stroke-linecap: round; stroke-linejoin: round; transform-origin: 253.825px 342.65px;" id="eliuoauxqos79" class="animable"></rect><path d="M263.1,325.16a17.49,17.49,0,1,0,17.49,17.49A17.49,17.49,0,0,0,263.1,325.16Zm0,31.13a13.64,13.64,0,1,1,13.64-13.64A13.64,13.64,0,0,1,263.1,356.29Z" style="fill: rgb(191, 191, 191); stroke: rgb(38, 50, 56); stroke-linecap: round; stroke-linejoin: round; transform-origin: 263.1px 342.65px;" id="elrwpffrv8ye" class="animable"></path><path d="M269.85,342.65a5.67,5.67,0,1,1-5.67-5.67A5.67,5.67,0,0,1,269.85,342.65Z" style="fill: rgb(191, 191, 191); stroke: rgb(38, 50, 56); stroke-linecap: round; stroke-linejoin: round; transform-origin: 264.18px 342.65px;" id="el4bmga7u5ryt" class="animable"></path><path d="M368.78,341.73H339a9,9,0,0,1-9-9h0a9,9,0,0,1,9-9h29.83Z" style="fill: rgb(153, 153, 153); stroke: rgb(38, 50, 56); stroke-linecap: round; stroke-linejoin: round; transform-origin: 349.415px 332.73px;" id="eldlkvc8oak3" class="animable"></path><rect x="372.88" y="404.69" width="64.4" height="21.77" style="fill: rgb(117, 117, 117); stroke: rgb(38, 50, 56); stroke-linecap: round; stroke-linejoin: round; transform-origin: 405.08px 415.575px;" id="elw6dijudw41" class="animable"></rect><rect x="372.88" y="404.69" width="58.37" height="21.77" style="fill: rgb(153, 153, 153); stroke: rgb(38, 50, 56); stroke-linecap: round; stroke-linejoin: round; transform-origin: 402.065px 415.575px;" id="elskrvg7vznt" class="animable"></rect><rect x="372.88" y="254.82" width="72.4" height="156.46" rx="3.96" style="fill: rgb(117, 117, 117); stroke: rgb(38, 50, 56); stroke-linecap: round; stroke-linejoin: round; transform-origin: 409.08px 333.05px;" id="elsz7iv4pva9c" class="animable"></rect><rect x="364.88" y="254.82" width="72.4" height="156.46" rx="3.96" style="fill: rgb(191, 191, 191); stroke: rgb(38, 50, 56); stroke-linecap: round; stroke-linejoin: round; transform-origin: 401.08px 333.05px;" id="ely20jw77m5o" class="animable"></rect><g id="elaejps1j7it9"><rect x="325.85" y="299.85" width="150.46" height="66.4" rx="0.96" style="fill: rgb(38, 50, 56); transform-origin: 401.08px 333.05px; transform: rotate(90deg);" class="animable"></rect></g><path d="M368.83,420.74h71.6a2,2,0,0,1,2,2v3.77a0,0,0,0,1,0,0H366.88a0,0,0,0,1,0,0V422.7A2,2,0,0,1,368.83,420.74Z" style="fill: rgb(117, 117, 117); stroke: rgb(38, 50, 56); stroke-linecap: round; stroke-linejoin: round; transform-origin: 404.655px 423.625px;" id="el7ydfwhtp3g4" class="animable"></path><g id="el7v36uqhoolb"><rect x="372.78" y="263.18" width="55.38" height="40.75" rx="1.12" style="fill: rgb(234, 112, 45); opacity: 0.2; transform-origin: 400.47px 283.555px;" class="animable"></rect></g><g id="el9jtp8l9cs8u"><path d="M394.42,283.68l16.85,6.42a18.53,18.53,0,0,0-4.11-19.17Z" style="fill: rgb(234, 112, 45); opacity: 0.4; transform-origin: 403.395px 280.515px;" class="animable"></path></g><g id="eldlqi9zw6vwb"><path d="M394.43,282.8l12.3-12.3a18.48,18.48,0,0,0-8-4.57L397,272.82Z" style="fill: rgb(234, 112, 45); opacity: 0.6; transform-origin: 400.58px 274.365px;" class="animable"></path></g><path d="M394.17,265.3v16.05l3.93-15.57A18.78,18.78,0,0,0,394.17,265.3Z" style="fill: rgb(234, 112, 45); transform-origin: 396.135px 273.325px;" id="elk5mm077tqgc" class="animable"></path><g id="ellhl2v53itap"><path d="M393.57,283.62V265.3a18.5,18.5,0,0,0-15.83,27.56Z" style="fill: rgb(255, 255, 255); opacity: 0.1; transform-origin: 384.469px 279.08px;" class="animable"></path></g><g id="el270ox8qctrf"><path d="M393.87,302.3a18.51,18.51,0,0,0,17.18-11.63l-17.15-6.54L378,293.39A18.51,18.51,0,0,0,393.87,302.3Z" style="fill: rgb(234, 112, 45); opacity: 0.2; transform-origin: 394.525px 293.215px;" class="animable"></path></g><rect x="416.35" y="270.32" width="8.68" height="2.52" style="fill: rgb(234, 112, 45); transform-origin: 420.69px 271.58px;" id="elpx5ygyovm4n" class="animable"></rect><g id="elq6alzmvcp9c"><rect x="416.35" y="276.37" width="8.68" height="2.52" style="fill: rgb(234, 112, 45); opacity: 0.6; transform-origin: 420.69px 277.63px;" class="animable"></rect></g><g id="el7h3t7b0gc9i"><rect x="416.35" y="282.41" width="8.68" height="2.52" style="fill: rgb(234, 112, 45); opacity: 0.4; transform-origin: 420.69px 283.67px;" class="animable"></rect></g><g id="elannykgupis"><rect x="416.35" y="288.46" width="8.68" height="2.52" style="fill: rgb(234, 112, 45); opacity: 0.2; transform-origin: 420.69px 289.72px;" class="animable"></rect></g><g id="elnory3f392lk"><rect x="416.35" y="294.51" width="8.68" height="2.52" style="fill: rgb(255, 255, 255); opacity: 0.1; transform-origin: 420.69px 295.77px;" class="animable"></rect></g><g id="elfcpef07ayla"><rect x="372.78" y="312.18" width="55.38" height="40.75" rx="1.12" style="fill: rgb(234, 112, 45); opacity: 0.2; transform-origin: 400.47px 332.555px;" class="animable"></rect></g><g id="el5qxi9fxyhcw"><rect x="376.04" y="343.38" width="2.52" height="2.22" style="fill: rgb(234, 112, 45); opacity: 0.5; transform-origin: 377.3px 344.49px;" class="animable"></rect></g><g id="elci9dkxgisgh"><rect x="376.04" y="343.38" width="2.52" height="6.03" style="fill: rgb(234, 112, 45); opacity: 0.2; transform-origin: 377.3px 346.395px;" class="animable"></rect></g><g id="el53ot63rqkxk"><rect x="381.21" y="337.38" width="2.52" height="4.42" style="fill: rgb(234, 112, 45); opacity: 0.5; transform-origin: 382.47px 339.59px;" class="animable"></rect></g><g id="el5tx8bfkmm3"><rect x="381.21" y="337.38" width="2.52" height="12.03" style="fill: rgb(234, 112, 45); opacity: 0.2; transform-origin: 382.47px 343.395px;" class="animable"></rect></g><g id="elwf4ttf4fxqd"><rect x="386.37" y="331.38" width="2.52" height="6.62" style="fill: rgb(234, 112, 45); opacity: 0.5; transform-origin: 387.63px 334.69px;" class="animable"></rect></g><g id="el7y1epdhxfmi"><rect x="386.37" y="331.38" width="2.52" height="18.03" style="fill: rgb(234, 112, 45); opacity: 0.2; transform-origin: 387.63px 340.395px;" class="animable"></rect></g><g id="eld31tumitvju"><rect x="391.53" y="333.38" width="2.52" height="5.89" style="fill: rgb(234, 112, 45); opacity: 0.5; transform-origin: 392.79px 336.325px;" class="animable"></rect></g><g id="el61dxmfbeg7u"><rect x="391.53" y="333.38" width="2.52" height="16.03" style="fill: rgb(234, 112, 45); opacity: 0.2; transform-origin: 392.79px 341.395px;" class="animable"></rect></g><g id="eleiq5aovd77m"><rect x="396.7" y="335.38" width="2.52" height="5.15" style="fill: rgb(234, 112, 45); opacity: 0.5; transform-origin: 397.96px 337.955px;" class="animable"></rect></g><g id="el2t2et0qt4d4"><rect x="396.7" y="335.38" width="2.52" height="14.03" style="fill: rgb(234, 112, 45); opacity: 0.2; transform-origin: 397.96px 342.395px;" class="animable"></rect></g><g id="elvta8m1n6mij"><rect x="401.86" y="334.38" width="2.52" height="5.52" style="fill: rgb(234, 112, 45); opacity: 0.5; transform-origin: 403.12px 337.14px;" class="animable"></rect></g><g id="el7rv8n8xa7rj"><rect x="401.86" y="334.38" width="2.52" height="15.03" style="fill: rgb(234, 112, 45); opacity: 0.2; transform-origin: 403.12px 341.895px;" class="animable"></rect></g><g id="elvl2gq6ok0xc"><rect x="407.03" y="331.38" width="2.52" height="6.62" style="fill: rgb(234, 112, 45); opacity: 0.5; transform-origin: 408.29px 334.69px;" class="animable"></rect></g><g id="elusdvromoowr"><rect x="407.03" y="331.38" width="2.52" height="18.03" style="fill: rgb(234, 112, 45); opacity: 0.2; transform-origin: 408.29px 340.395px;" class="animable"></rect></g><g id="el7mj83qjdwyr"><rect x="412.19" y="328.38" width="2.52" height="7.73" style="fill: rgb(234, 112, 45); opacity: 0.5; transform-origin: 413.45px 332.245px;" class="animable"></rect></g><g id="elya0yu3xx31"><rect x="412.19" y="328.38" width="2.52" height="21.03" style="fill: rgb(234, 112, 45); opacity: 0.2; transform-origin: 413.45px 338.895px;" class="animable"></rect></g><g id="elk7vs83pzjx"><rect x="417.35" y="331.38" width="2.52" height="6.62" style="fill: rgb(234, 112, 45); opacity: 0.5; transform-origin: 418.61px 334.69px;" class="animable"></rect></g><g id="elev5dnrfvc5s"><rect x="417.35" y="331.38" width="2.52" height="18.03" style="fill: rgb(234, 112, 45); opacity: 0.2; transform-origin: 418.61px 340.395px;" class="animable"></rect></g><g id="elw55mummifeg"><rect x="422.52" y="322.38" width="2.52" height="9.93" style="fill: rgb(234, 112, 45); opacity: 0.5; transform-origin: 423.78px 327.345px;" class="animable"></rect></g><g id="elhundywtfr67"><rect x="422.52" y="322.38" width="2.52" height="27.03" style="fill: rgb(234, 112, 45); opacity: 0.2; transform-origin: 423.78px 335.895px;" class="animable"></rect></g><g id="el3k04epnhdey"><rect x="372.78" y="361.18" width="55.38" height="40.75" rx="1.12" style="fill: rgb(234, 112, 45); opacity: 0.2; transform-origin: 400.47px 381.555px;" class="animable"></rect></g><rect x="378.56" y="367.11" width="11.88" height="1.83" style="fill: rgb(234, 112, 45); transform-origin: 384.5px 368.025px;" id="el2l5gurw9m3u" class="animable"></rect><rect x="385.56" y="374.09" width="35.88" height="1.83" style="fill: rgb(234, 112, 45); transform-origin: 403.5px 375.005px;" id="el2rofq0fvjj" class="animable"></rect><rect x="378.56" y="378.89" width="42.88" height="1.83" style="fill: rgb(234, 112, 45); transform-origin: 400px 379.805px;" id="elpip5111mzh" class="animable"></rect><rect x="378.56" y="383.7" width="42.88" height="1.83" style="fill: rgb(234, 112, 45); transform-origin: 400px 384.615px;" id="elbebxdwx05bt" class="animable"></rect><rect x="378.56" y="388.5" width="42.88" height="1.83" style="fill: rgb(234, 112, 45); transform-origin: 400px 389.415px;" id="elll285frk85p" class="animable"></rect><rect x="378.56" y="393.3" width="22.88" height="1.83" style="fill: rgb(234, 112, 45); transform-origin: 390px 394.215px;" id="elykhbxwu0w" class="animable"></rect></g><g id="freepik--Smoke--inject-2" class="animable animator-active" style="transform-origin: 331.526px 178.706px;"><path d="M314.1,192.91a4.48,4.48,0,0,0-2.92,7.9,4.48,4.48,0,0,0,2.92,7.9h.11a4.77,4.77,0,0,0,7.51,1.72h0a4.34,4.34,0,0,0,1.09.14" style="fill: none; stroke: rgb(38, 50, 56); stroke-linecap: round; stroke-linejoin: round; transform-origin: 316.202px 202.254px;" id="elrjjki5tsq2r" class="animable"></path><path d="M329.84,198.66a4.8,4.8,0,0,0-4.79-4.79,4.87,4.87,0,0,0-.55.06,4.48,4.48,0,0,0-8.4-.54" style="fill: none; stroke: rgb(38, 50, 56); stroke-linecap: round; stroke-linejoin: round; transform-origin: 322.97px 194.686px;" id="eley7a6e8o3lt" class="animable"></path><path d="M326.33,209a4.74,4.74,0,0,0,2.53-7.46" style="fill: none; stroke: rgb(38, 50, 56); stroke-linecap: round; stroke-linejoin: round; transform-origin: 328.084px 205.27px;" id="el7e3t3hrxifw" class="animable"></path><path d="M349.72,196.79h0A6.15,6.15,0,0,0,351,197a7,7,0,0,0,7.2-10.74" style="fill: none; stroke: rgb(38, 50, 56); stroke-linecap: round; stroke-linejoin: round; transform-origin: 354.545px 191.698px;" id="elw241cgrrzvi" class="animable"></path><path d="M335.29,189.39a5.36,5.36,0,0,0,5.36,5.36h.12a5.71,5.71,0,0,0,5.24,3.45" style="fill: none; stroke: rgb(38, 50, 56); stroke-linecap: round; stroke-linejoin: round; transform-origin: 340.65px 193.795px;" id="el1hk62avfg9b" class="animable"></path><path d="M359.38,182.79a5.7,5.7,0,0,0-5.7-5.7c-.22,0-.43,0-.65.06a5.34,5.34,0,0,0-10-.63,5.22,5.22,0,0,0-2.37-.58,5.34,5.34,0,0,0-3.48,9.41" style="fill: none; stroke: rgb(38, 50, 56); stroke-linecap: round; stroke-linejoin: round; transform-origin: 347.338px 179.345px;" id="elavgz5iu7vll" class="animable"></path><path d="M309,168.71a6.81,6.81,0,0,0,11.2,4.87,5.69,5.69,0,0,0,.54-.56" style="fill: none; stroke: rgb(38, 50, 56); stroke-linecap: round; stroke-linejoin: round; transform-origin: 314.87px 171.95px;" id="elc91h3fgwx1" class="animable"></path><path d="M307.29,153.3a6.8,6.8,0,0,0-2.42,4.93,6.81,6.81,0,0,0,.39,8.23" style="fill: none; stroke: rgb(38, 50, 56); stroke-linecap: round; stroke-linejoin: round; transform-origin: 305.481px 159.88px;" id="el6dva8yxcfup" class="animable"></path><path d="M328.94,153.27a6.31,6.31,0,0,0-1.39-5.16,6.42,6.42,0,0,0-9.05-.79.94.94,0,0,1-.1.1,6.79,6.79,0,0,0-9.79,5v0" style="fill: none; stroke: rgb(38, 50, 56); stroke-linecap: round; stroke-linejoin: round; transform-origin: 318.823px 149.542px;" id="elnn0l4aadn" class="animable"></path><path d="M323.28,174a6.39,6.39,0,0,0,7.1-8.12,6.38,6.38,0,0,0,3.41-10.35" style="fill: none; stroke: rgb(38, 50, 56); stroke-linecap: round; stroke-linejoin: round; transform-origin: 329.296px 164.802px;" id="el6b3ywm8q8mw" class="animable"></path></g><g id="freepik--Character--inject-2" class="animable" style="transform-origin: 132.887px 224.349px;"><path d="M81.5,314.56l-3.57,15.22H105s1.27-2.52-2-4.19-11.31-5.18-11-9.39S81.5,314.56,81.5,314.56Z" style="fill: rgb(117, 117, 117); stroke: rgb(38, 50, 56); stroke-linecap: round; stroke-linejoin: round; transform-origin: 91.5864px 321.782px;" id="elie20r17y5sn" class="animable"></path><path d="M130.72,315l-1.93,14.78h27.05s1-2.45-2.46-4.07-11.86-5-12-9.12S130.72,315,130.72,315Z" style="fill: rgb(117, 117, 117); stroke: rgb(38, 50, 56); stroke-linecap: round; stroke-linejoin: round; transform-origin: 142.382px 322.006px;" id="el5q2wjes19rm" class="animable"></path><path d="M131.63,141.88l-5.68,6.3-5.69,6.31-8.75-.8,4.32,4.55-5.11,5.65c-14.09-8.79-18.31-20.31-10.58-22.47l.54-.14C108.77,139.31,128.07,140.5,131.63,141.88Z" style="fill: rgb(234, 112, 45); transform-origin: 113.973px 152.065px;" id="el0gqzm5zrzquu" class="animable"></path><g style="clip-path: url(&quot;#freepik--clip-path-5--inject-2&quot;); transform-origin: 111.118px 152.585px;" id="el969w1zrma54" class="animable"><g id="el45h8rtcwoyp"><path d="M120.26,154.49l-8.75-.8,4.32,4.55-5.11,5.65c-14.09-8.79-18.31-20.31-10.58-22.47l.54-.14c.31,2,1.12,4.36,3.14,5.53,4,2.31,14.35,2.48,14.35,2.48s3.06-2.94,6.75-2.48c.46.06.8.55,1,1.37Z" style="fill-opacity: 0.7; opacity: 0.2; transform-origin: 111.118px 152.585px;" class="animable"></path></g></g><path d="M131.63,141.88l-5.68,6.3-5.69,6.31-8.75-.8,4.32,4.55-5.11,5.65c-14.09-8.79-18.31-20.31-10.58-22.47l.54-.14C108.77,139.31,128.07,140.5,131.63,141.88Z" style="fill: none; stroke: rgb(38, 50, 56); stroke-linecap: round; stroke-linejoin: round; transform-origin: 113.973px 152.065px;" id="elj2us602h5qa" class="animable"></path><path d="M178.65,212.68c5.59-13.07,8.25-24.47,5.94-25.46l-46.23-19.78c-2.32-1-8.72,8.8-14.32,21.87s-8.25,24.47-5.94,25.46l46.24,19.79C166.65,235.55,173.05,225.75,178.65,212.68Z" style="fill: rgb(117, 117, 117); stroke: rgb(38, 50, 56); stroke-linecap: round; stroke-linejoin: round; transform-origin: 151.344px 200.999px;" id="elyhcmejx7nxr" class="animable"></path><path d="M164.34,234.56,118.1,214.78c-2.31-1,.35-12.4,5.94-25.46s12-22.87,14.32-21.88l46.23,19.78c-2.31-1-8.71,8.81-14.31,21.88S162,233.57,164.34,234.56Z" style="fill: rgb(191, 191, 191); stroke: rgb(38, 50, 56); stroke-linecap: round; stroke-linejoin: round; transform-origin: 150.929px 200.966px;" id="elfx0mce51s86" class="animable"></path><path d="M173.61,189l4-1.75c.79-.34,1.82-2.27,3.07-2.38a38,38,0,0,1,5.23,0c1.47.11,0,2,0,2s.9,2,1.7,3.34-.68,1.46-1,2-.89,1.94-2,1.94-.64,1.47-1.77.9-3.41-1.81-3.41-1.81l-4.32,2.95Z" style="fill: rgb(255, 255, 255); stroke: rgb(38, 50, 56); stroke-linecap: round; stroke-linejoin: round; transform-origin: 180.727px 190.485px;" id="elf4wevomaf9w" class="animable"></path><path d="M147.75,141.47c.81-12.86,11.72-23.77,19.49-14.38,9.87,11.91,2.94,18.56-5.77,23.69S147.75,141.47,147.75,141.47Z" style="fill: rgb(255, 255, 255); stroke: rgb(38, 50, 56); stroke-linecap: round; stroke-linejoin: round; transform-origin: 159.912px 137.721px;" id="el2rfhjp3b2d3" class="animable"></path><path d="M150.49,139.31c-3.61,4.57-10,7.72-10,7.72l9.59,9.85a28.2,28.2,0,0,1,5.41-6.32" style="fill: rgb(255, 255, 255); stroke: rgb(38, 50, 56); stroke-linecap: round; stroke-linejoin: round; transform-origin: 147.99px 148.095px;" id="elgws82rvxwfp" class="animable"></path><path d="M147.75,141.47a17.53,17.53,0,0,1,8.8,7.7s3.7-.2,4.88-1.21,5.21-4.11,6.22-4.08-1.16,3.5-1.16,3.5,5.37-3.16,6.38-5.91c0,0,4-1.25,3.36-6.3s-4.28-4-4.16-7.73-2.73-7.74-4.92-7.07-4.71,1-6.23-.84-6.79.76-6.89,4C154,123.56,146.53,129.59,147.75,141.47Z" style="fill: rgb(38, 50, 56); transform-origin: 161.957px 134.044px;" id="elsrikdg2zwd" class="animable"></path><path d="M167,144.6s2.12-.59,2.4,0-5.09,5.53-6.1,4.57,2.44-3.73,2.44-3.73" style="fill: rgb(255, 255, 255); stroke: rgb(38, 50, 56); stroke-linecap: round; stroke-linejoin: round; transform-origin: 166.263px 146.816px;" id="el6bwfg683z4f" class="animable"></path><path d="M139,144.34l3.09-2.46s14.52,7.54,13.4,19.56L139,151Z" style="fill: rgb(234, 112, 45); stroke: rgb(38, 50, 56); stroke-linecap: round; stroke-linejoin: round; transform-origin: 147.276px 151.66px;" id="elq6aynxpspvf" class="animable"></path><path d="M154.91,180.55c-5.15,6-12.29,13-17.46,18.94a53.24,53.24,0,0,0-5.25,6.83s-27-3.69-33.57-15.2C98,190,115,148.22,128.39,142.34c7.85-3.43,29.76,13,33,26.95C162,171.58,159.09,175.71,154.91,180.55Z" style="fill: rgb(234, 112, 45); transform-origin: 130.042px 174.1px;" id="elh3yijtt2yy9" class="animable"></path><g style="clip-path: url(&quot;#freepik--clip-path-6--inject-2&quot;); transform-origin: 146.18px 186.272px;" id="elnwo4cjcrm3" class="animable"><g id="el1xunh6ymd84"><path d="M137.45,199.49c.35-3.89,5.12-9.62,5.12-9.62-2.67-2.64-1.43-5.67,0-4.49s3.06-.63,3.06-.63c-2.9-6.7.79-11.89,1.64-11.69s.71,4.54.71,4.54a7.06,7.06,0,0,1,4.12-2.5,14.11,14.11,0,0,1,2.81,5.45C149.76,186.52,142.62,193.55,137.45,199.49Z" style="fill-opacity: 0.7; opacity: 0.2; transform-origin: 146.18px 186.272px;" class="animable"></path></g></g><path d="M154.91,180.55c-5.15,6-12.29,13-17.46,18.94a53.24,53.24,0,0,0-5.25,6.83s-27-3.69-33.57-15.2C98,190,115,148.22,128.39,142.34c7.85-3.43,29.76,13,33,26.95C162,171.58,159.09,175.71,154.91,180.55Z" style="fill: none; stroke: rgb(38, 50, 56); stroke-linecap: round; stroke-linejoin: round; transform-origin: 130.042px 174.1px;" id="eluizu4r2eoy" class="animable"></path><path d="M98.89,190.48s12.55,3.24,32.76,15.08v9.56s18.39,31.71,21.12,38.7-4.46,35.55-6.28,46.69-2.05,9.09-1.82,11.13-1.36,4.78-1.36,4.78l.22,1.82s-9.4,2.27-14.18,0c0,0,.69-4.1.69-4.78a22,22,0,0,1,1.61-3.86s4.07-41.06,4.3-46.06S110,226.71,110,226.71s.23,25.47,0,29.44S94.62,310,94.62,310a10.19,10.19,0,0,1,0,3.87,11.72,11.72,0,0,0,0,4.09s-10.91,2.27-15.68-1.82c0,0,1.13-3.86.91-4.77s1.59-3.64,1.59-3.64,6.77-36,7.68-41.28a59.65,59.65,0,0,1,2.95-10.34s-.92-26.56-2.74-32.24S90.71,199.93,98.89,190.48Z" style="fill: rgb(38, 50, 56); transform-origin: 116.161px 254.864px;" id="elyu19aav19tg" class="animable"></path><path d="M117.16,183.24c-.19,0,12.59-23.59,25.41-34.07" style="fill: none; stroke: rgb(38, 50, 56); stroke-linecap: round; stroke-linejoin: round; transform-origin: 129.864px 166.205px;" id="el5b9gs7a49ds" class="animable"></path><path d="M161.42,169.29s-9.74,2.78-13.44,12.14c0,0,2.94,23.18,6,26.59s20.43-8,22.36-11.23l1.76-1.55s-1.78-5-4-7.45l-2,1.18s-2-1.18-9.25,3.14C162.82,192.11,162.68,173,161.42,169.29Z" style="fill: rgb(234, 112, 45); stroke: rgb(38, 50, 56); stroke-linecap: round; stroke-linejoin: round; transform-origin: 163.04px 188.97px;" id="ele852jy3ee0n" class="animable"></path><path d="M172.07,189a29.87,29.87,0,0,1,3.09,5.19" style="fill: none; stroke: rgb(38, 50, 56); stroke-linecap: round; stroke-linejoin: round; transform-origin: 173.615px 191.595px;" id="eluzqe0r63k1d" class="animable"></path><path d="M179.48,193.25a7,7,0,0,0,.88-2.77" style="fill: none; stroke: rgb(38, 50, 56); stroke-linecap: round; stroke-linejoin: round; transform-origin: 179.92px 191.865px;" id="elfzxcsz44k7" class="animable"></path><path d="M103.33,153.24c3,2.5,8.18.45,8.18.45s-4.43-.09-5.34-1.81" style="fill: none; stroke: rgb(38, 50, 56); stroke-linecap: round; stroke-linejoin: round; transform-origin: 107.42px 153.181px;" id="elif893iaz9ij" class="animable"></path><path d="M108.82,198c3.73,1.4,8,3.18,12.35,5.3l.74-2.12a125.14,125.14,0,0,0-12-5.62Z" style="fill: rgb(153, 153, 153); stroke: rgb(38, 50, 56); stroke-linecap: round; stroke-linejoin: round; transform-origin: 115.365px 199.43px;" id="el9poavg5fk1" class="animable"></path><path d="M123.22,201.9l-.67,2.1c2.77,1.41,5.54,3,8.17,4.65v-2.33S127.81,204.4,123.22,201.9Z" style="fill: rgb(153, 153, 153); stroke: rgb(38, 50, 56); stroke-linecap: round; stroke-linejoin: round; transform-origin: 126.635px 205.275px;" id="el48ch234rkxa" class="animable"></path><path d="M107.89,194.78a80,80,0,0,0-9.28-2.92l-1.42,2.3s3.86,1,9.42,3Z" style="fill: rgb(153, 153, 153); stroke: rgb(38, 50, 56); stroke-linecap: round; stroke-linejoin: round; transform-origin: 102.54px 194.51px;" id="elxhcpfufkiff" class="animable"></path><g id="el6i27wozdpp8"><g style="opacity: 0.2; transform-origin: 120.42px 231.73px;" class="animable"><path d="M104.92,203.31s-3.16,8.35-2.38,13.58,4,6.82,4,6.82a25.87,25.87,0,0,1-10.69,1.89" style="fill: none; stroke: rgb(255, 255, 255); stroke-linecap: round; stroke-linejoin: round; transform-origin: 101.195px 214.464px;" id="elyu7cjrso8j" class="animable"></path><path d="M110.15,224.62s7.06,2.72,12.4-.91" style="fill: none; stroke: rgb(255, 255, 255); stroke-linecap: round; stroke-linejoin: round; transform-origin: 116.35px 224.654px;" id="elrffks1smm1" class="animable"></path><path d="M107.89,225.61s-3.54,6.53-9.28,9" style="fill: none; stroke: rgb(255, 255, 255); stroke-linecap: round; stroke-linejoin: round; transform-origin: 103.25px 230.11px;" id="elxh91iqs8tz" class="animable"></path><path d="M136.51,257.12s6.14,2.73,9.78,0" style="fill: none; stroke: rgb(255, 255, 255); stroke-linecap: round; stroke-linejoin: round; transform-origin: 141.4px 257.727px;" id="el6j0ojbcwpq8" class="animable"></path><path d="M138.11,264s7.24-.6,9.87-5.91" style="fill: none; stroke: rgb(255, 255, 255); stroke-linecap: round; stroke-linejoin: round; transform-origin: 143.045px 261.045px;" id="el22tcbjr9vdf" class="animable"></path><path d="M93.78,257.12s5.68,3.71,10.46.61" style="fill: none; stroke: rgb(255, 255, 255); stroke-linecap: round; stroke-linejoin: round; transform-origin: 99.01px 258.043px;" id="el8b5aoytpbs4" class="animable"></path><path d="M92.87,210.46a3.15,3.15,0,0,0,3.45,1.28A91.65,91.65,0,0,1,99,201.9l-3.19-2.44a52.18,52.18,0,0,0-2.95,8.11" style="fill: none; stroke: rgb(255, 255, 255); stroke-linecap: round; stroke-linejoin: round; transform-origin: 95.93px 205.656px;" id="el3hzcsbty8cn" class="animable"></path><path d="M110.15,205.27l8,1-.07,8.46a8.21,8.21,0,0,1-8.66-.32v-5.81" style="fill: none; stroke: rgb(255, 255, 255); stroke-linecap: round; stroke-linejoin: round; transform-origin: 113.785px 210.541px;" id="elrns95bd25" class="animable"></path></g></g><path d="M162.82,192.11s-.7,5.06-2.75,7.08" style="fill: none; stroke: rgb(38, 50, 56); stroke-linecap: round; stroke-linejoin: round; transform-origin: 161.445px 195.65px;" id="elzlos3tx5u5" class="animable"></path><path d="M107.42,186.33s17.11,2.8,25.81-1.58" style="fill: none; stroke: rgb(38, 50, 56); stroke-linecap: round; stroke-linejoin: round; transform-origin: 120.325px 185.981px;" id="eldv458pizv5" class="animable"></path><path d="M148,181.43s-2.13-7.35,0-9.87" style="fill: none; stroke: rgb(38, 50, 56); stroke-linecap: round; stroke-linejoin: round; transform-origin: 147.527px 176.495px;" id="elgcrt0cis8em" class="animable"></path></g><g id="freepik--Data--inject-2" class="animable" style="transform-origin: 192.59px 228.396px;"><path d="M191.76,212.73a1.3,1.3,0,0,0,1.45-1h.89v8.39h-1.32v-6.4h-1Z" style="fill: rgb(234, 112, 45); transform-origin: 192.93px 215.925px;" id="el2wr14ahefj3" class="animable"></path><path d="M173.17,233.4a1.29,1.29,0,0,0,1.23-1.3l.88-.16,1.53,8.25-1.3.24-1.17-6.29-1,.18Z" style="fill: rgb(234, 112, 45); transform-origin: 174.99px 236.185px;" id="elbs5pg05gbhr" class="animable"></path><path d="M187,225.27a1.31,1.31,0,0,0,1.52-1l.88.06-.55,8.37-1.31-.08.42-6.39-1-.07Z" style="fill: rgb(234, 112, 45); transform-origin: 188.18px 228.485px;" id="elzq1rss7u4y8" class="animable"></path><path d="M186.43,240.65a1.3,1.3,0,0,0,1.31-1.22l.89-.11,1,8.34-1.31.15-.75-6.35-1,.12Z" style="fill: rgb(234, 112, 45); transform-origin: 188.03px 243.565px;" id="eldiwnab9236u" class="animable"></path><path d="M195.41,226.48a1.32,1.32,0,0,0,1.1-1.43l.85-.25,2.37,8.06-1.27.37-1.8-6.14-1,.28Z" style="fill: rgb(234, 112, 45); transform-origin: 197.57px 229.015px;" id="eltj2w73jx42d" class="animable"></path><path d="M206.49,241.64a1.29,1.29,0,0,0,1.09-1.42l.86-.25,2.37,8.05-1.27.37-1.81-6.14-1,.29Z" style="fill: rgb(234, 112, 45); transform-origin: 208.65px 244.18px;" id="el4y439o3lfv" class="animable"></path><path d="M168.46,218.91a1.31,1.31,0,0,0,1-1.49l.83-.31,2.9,7.88-1.24.45-2.21-6-1,.36Z" style="fill: rgb(234, 112, 45); transform-origin: 170.825px 221.275px;" id="elf80ckcvm7" class="animable"></path><path d="M166.05,254a1.29,1.29,0,0,0,1.23-1.3l.88-.16,1.52,8.26-1.29.24-1.17-6.3-1,.18Z" style="fill: rgb(234, 112, 45); transform-origin: 167.865px 256.79px;" id="el9u1apo7udva" class="animable"></path><path d="M186.33,251.26a1.32,1.32,0,0,0,1.58-.86l.88.12-1.1,8.32-1.31-.17.84-6.35-1-.14Z" style="fill: rgb(234, 112, 45); transform-origin: 187.505px 254.62px;" id="el00v9ave0pbzc9" class="animable"></path><path d="M200.65,250.42a1.3,1.3,0,0,0,1.1-1.41l.86-.25,2.31,8.07-1.27.37L201.89,251l-1,.28Z" style="fill: rgb(234, 112, 45); transform-origin: 202.785px 252.98px;" id="el1yr32s1e57v" class="animable"></path><path d="M216.59,251.61a1.31,1.31,0,0,0,1.42-1.1l.89,0,.23,8.39-1.31,0-.18-6.4-1,0Z" style="fill: rgb(234, 112, 45); transform-origin: 217.86px 254.705px;" id="el7r96n30zcuk" class="animable"></path><path d="M178.6,205.44a1.3,1.3,0,0,0,1.15-1.37l.86-.22,2,8.15-1.28.32-1.55-6.22-1,.25Z" style="fill: rgb(234, 112, 45); transform-origin: 180.605px 208.085px;" id="eladhhfa6bvye" class="animable"></path><path d="M203.5,228.18a1.31,1.31,0,0,0,1.57-.88l.88.11-1,8.33-1.31-.15.77-6.36-1-.12Z" style="fill: rgb(234, 112, 45); transform-origin: 204.68px 231.52px;" id="ely8zesprccc" class="animable"></path><path d="M190.1,200.61A1.31,1.31,0,0,0,191,199l.81-.37,3.5,7.64-1.2.55L191.41,201l-.93.43Z" style="fill: rgb(234, 112, 45); transform-origin: 192.705px 202.725px;" id="elwq1mg31fec" class="animable"></path><path d="M178.19,224.05a2,2,0,1,1,4-.45l.49,4.34a2,2,0,1,1-4,.45Zm1.81,4.27c.07.6.36.8.77.75s.66-.3.59-.9l-.51-4.5c-.07-.6-.36-.8-.77-.75s-.66.3-.59.9Z" style="fill: rgb(234, 112, 45); transform-origin: 180.435px 225.995px;" id="elaoqznuvg3et" class="animable"></path><path d="M180,240a2,2,0,1,1,4-.45l.49,4.33a2,2,0,1,1-4,.46Zm1.81,4.27c.07.6.36.79.77.75s.66-.31.59-.9l-.51-4.51c-.07-.59-.35-.79-.77-.74s-.66.3-.59.9Z" style="fill: rgb(234, 112, 45); transform-origin: 182.245px 241.942px;" id="eltscr6fmcpi9" class="animable"></path><path d="M191.68,253.63a2,2,0,1,1,4-.34l.38,4.35a2,2,0,1,1-4,.34Zm1.7,4.32c.05.6.34.8.75.77s.66-.29.61-.89l-.39-4.51c0-.6-.33-.8-.75-.77s-.66.29-.61.89Z" style="fill: rgb(234, 112, 45); transform-origin: 193.87px 255.635px;" id="elal8atjmggfp" class="animable"></path><path d="M172,208.74a2,2,0,1,1,3.8-1.26l1.37,4.14a2,2,0,1,1-3.8,1.26Zm2.65,3.81c.19.57.51.7.91.57s.58-.44.39-1l-1.43-4.3c-.19-.57-.51-.7-.91-.57s-.58.43-.39,1Z" style="fill: rgb(234, 112, 45); transform-origin: 174.586px 210.182px;" id="elb5zwdnrhnjr" class="animable"></path><path d="M196.39,217.08a2,2,0,1,1,3.81-1.26l1.37,4.14a2,2,0,1,1-3.8,1.26Zm2.66,3.81c.19.57.51.7.91.57s.58-.44.39-1l-1.43-4.31c-.19-.57-.51-.7-.91-.57s-.58.44-.39,1Z" style="fill: rgb(234, 112, 45); transform-origin: 198.98px 218.518px;" id="elzuf8n72h0k" class="animable"></path><path d="M184.63,214.83a2,2,0,1,1,4,.38l-.4,4.34a2,2,0,1,1-4-.37Zm.9,4.56c-.05.59.19.85.61.88s.7-.16.76-.76l.41-4.51c.06-.6-.18-.85-.6-.89s-.7.17-.76.76Z" style="fill: rgb(234, 112, 45); transform-origin: 186.43px 217.194px;" id="elumrrflr4kr" class="animable"></path><path d="M180.16,199.22a2,2,0,1,1,3-2.61l2.84,3.32a2,2,0,1,1-3,2.61Zm3.9,2.52c.39.46.74.46,1.06.18s.37-.61,0-1.07l-2.95-3.44c-.4-.46-.74-.46-1.06-.18s-.37.61,0,1.07Z" style="fill: rgb(234, 112, 45); transform-origin: 183.08px 199.575px;" id="elyaiop4h7fr" class="animable"></path><path d="M191.5,235.28a2,2,0,1,1,4,0v4.37a2,2,0,1,1-4,0Zm1.31,4.45c0,.6.27.83.69.83s.68-.23.68-.83V235.2c0-.6-.26-.83-.68-.83s-.69.23-.69.83Z" style="fill: rgb(234, 112, 45); transform-origin: 193.5px 237.465px;" id="elgtickapqpe6" class="animable"></path><path d="M200.07,240a2,2,0,1,1,4,0v4.36a2,2,0,1,1-4,0Zm1.32,4.45c0,.6.26.83.68.83s.68-.23.68-.83v-4.53c0-.6-.26-.83-.68-.83s-.68.23-.68.83Z" style="fill: rgb(234, 112, 45); transform-origin: 202.07px 242.18px;" id="elptxzkdwvn4e" class="animable"></path><path d="M209,253.69a2,2,0,1,1,4,0v4.37a2,2,0,1,1-4,0Zm1.32,4.45c0,.6.27.83.69.83s.68-.23.68-.83v-4.53c0-.6-.26-.83-.68-.83s-.69.23-.69.83Z" style="fill: rgb(234, 112, 45); transform-origin: 211px 255.875px;" id="elt3uhogb6k9h" class="animable"></path><path d="M174.84,250.22a2,2,0,1,1,3.8,1.27l-1.39,4.14a2,2,0,1,1-3.8-1.27Zm-.16,4.64c-.19.57,0,.87.38,1s.72,0,.91-.57l1.44-4.3c.19-.56,0-.86-.38-1s-.72,0-.91.57Z" style="fill: rgb(234, 112, 45); transform-origin: 176.045px 252.925px;" id="eljcykr6l4pq" class="animable"></path></g><g id="freepik--Ladder--inject-2" class="animable" style="transform-origin: 119.78px 377.865px;"><polygon points="92.75 334.1 126.27 426.47 136.13 426.47 102.61 334.1 92.75 334.1" style="fill: rgb(117, 117, 117); stroke: rgb(38, 50, 56); stroke-linecap: round; stroke-linejoin: round; transform-origin: 114.44px 380.285px;" id="elftm3nx69mu" class="animable"></polygon><g id="elncppkiytxcr"><rect x="109.99" y="358.69" width="56.82" height="5.79" style="fill: rgb(117, 117, 117); stroke: rgb(38, 50, 56); stroke-linecap: round; stroke-linejoin: round; transform-origin: 138.4px 361.585px; transform: rotate(180deg);" class="animable"></rect></g><g id="elwsoah4bhbu"><rect x="118.2" y="381.79" width="56.82" height="5.79" style="fill: rgb(117, 117, 117); stroke: rgb(38, 50, 56); stroke-linecap: round; stroke-linejoin: round; transform-origin: 146.61px 384.685px; transform: rotate(180deg);" class="animable"></rect></g><g id="elurlb45vb3je"><rect x="126.42" y="404.89" width="56.82" height="5.79" style="fill: rgb(117, 117, 117); stroke: rgb(38, 50, 56); stroke-linecap: round; stroke-linejoin: round; transform-origin: 154.83px 407.785px; transform: rotate(180deg);" class="animable"></rect></g><polygon points="150.25 334.1 183.77 426.47 193.63 426.47 160.11 334.1 150.25 334.1" style="fill: rgb(117, 117, 117); stroke: rgb(38, 50, 56); stroke-linecap: round; stroke-linejoin: round; transform-origin: 171.94px 380.285px;" id="eled20nupj546" class="animable"></polygon><polygon points="89.31 334.1 55.79 426.47 45.93 426.47 79.45 334.1 89.31 334.1" style="fill: rgb(191, 191, 191); stroke: rgb(38, 50, 56); stroke-linecap: round; stroke-linejoin: round; transform-origin: 67.62px 380.285px;" id="elx8bjcwsplbi" class="animable"></polygon><rect x="72.75" y="358.69" width="56.82" height="5.79" style="fill: rgb(153, 153, 153); stroke: rgb(38, 50, 56); stroke-linecap: round; stroke-linejoin: round; transform-origin: 101.16px 361.585px;" id="elyt50nbj33e" class="animable"></rect><rect x="64.54" y="381.79" width="56.82" height="5.79" style="fill: rgb(153, 153, 153); stroke: rgb(38, 50, 56); stroke-linecap: round; stroke-linejoin: round; transform-origin: 92.95px 384.685px;" id="elidnhwy1n05" class="animable"></rect><rect x="56.33" y="404.89" width="56.82" height="5.79" style="fill: rgb(153, 153, 153); stroke: rgb(38, 50, 56); stroke-linecap: round; stroke-linejoin: round; transform-origin: 84.74px 407.785px;" id="elznt3fl14cxp" class="animable"></rect><polygon points="146.81 334.1 113.29 426.47 103.43 426.47 136.95 334.1 146.81 334.1" style="fill: rgb(191, 191, 191); stroke: rgb(38, 50, 56); stroke-linecap: round; stroke-linejoin: round; transform-origin: 125.12px 380.285px;" id="el87ufas13hra" class="animable"></polygon><rect x="72.62" y="329.26" width="94.67" height="10.94" style="fill: rgb(234, 112, 45); stroke: rgb(38, 50, 56); stroke-linecap: round; stroke-linejoin: round; transform-origin: 119.955px 334.73px;" id="elw0qf0fpc8g" class="animable"></rect><rect x="65.91" y="329.26" width="108.09" height="3.84" style="fill: rgb(234, 112, 45); stroke: rgb(38, 50, 56); stroke-linecap: round; stroke-linejoin: round; transform-origin: 119.955px 331.18px;" id="el8p0ipxi6kw" class="animable"></rect></g><g id="freepik--Floor--inject-2" class="animable" style="transform-origin: 249.805px 426.47px;"><line x1="22.2" y1="426.47" x2="477.41" y2="426.47" style="fill: rgb(153, 153, 153); stroke: rgb(38, 50, 56); stroke-linecap: round; stroke-linejoin: round; transform-origin: 249.805px 426.47px;" id="elisd6c2hkj" class="animable"></line></g><defs>     <filter id="active" height="200%">         <feMorphology in="SourceAlpha" result="DILATED" operator="dilate" radius="2"></feMorphology>                <feFlood flood-color="#32DFEC" flood-opacity="1" result="PINK"></feFlood>        <feComposite in="PINK" in2="DILATED" operator="in" result="OUTLINE"></feComposite>        <feMerge>            <feMergeNode in="OUTLINE"></feMergeNode>            <feMergeNode in="SourceGraphic"></feMergeNode>        </feMerge>    </filter>    <filter id="hover" height="200%">        <feMorphology in="SourceAlpha" result="DILATED" operator="dilate" radius="2"></feMorphology>                <feFlood flood-color="#ff0000" flood-opacity="0.5" result="PINK"></feFlood>        <feComposite in="PINK" in2="DILATED" operator="in" result="OUTLINE"></feComposite>        <feMerge>            <feMergeNode in="OUTLINE"></feMergeNode>            <feMergeNode in="SourceGraphic"></feMergeNode>        </feMerge>            <feColorMatrix type="matrix" values="0   0   0   0   0                0   1   0   0   0                0   0   0   0   0                0   0   0   1   0 "></feColorMatrix>    </filter></defs><defs><clipPath id="freepik--clip-path--inject-2"><path d="M341.85,236.67v10.75H245.58V236.67a3.11,3.11,0,0,1,3.11-3.11h90.05a3.11,3.11,0,0,1,3.06,2.52A3.81,3.81,0,0,1,341.85,236.67Z" style="fill:#999;stroke:#263238;stroke-linecap:round;stroke-linejoin:round"></path></clipPath><clipPath id="freepik--clip-path-2--inject-2"><path d="M243.31,244.41H343.84a7.11,7.11,0,0,1,7.11,7.11V417a0,0,0,0,1,0,0H236.2a0,0,0,0,1,0,0V251.52A7.11,7.11,0,0,1,243.31,244.41Z" style="fill:#bfbfbf;stroke:#263238;stroke-linecap:round;stroke-linejoin:round"></path></clipPath><clipPath id="freepik--clip-path-3--inject-2"><path d="M259.84,409.19H235.29A55.21,55.21,0,0,1,180.07,354V294.54h26.07V351a30.91,30.91,0,0,0,30.91,30.91h22.79a13.65,13.65,0,0,1,13.64,13.65h0A13.64,13.64,0,0,1,259.84,409.19Z" style="fill:#bfbfbf;stroke:#263238;stroke-linecap:round;stroke-linejoin:round"></path></clipPath><clipPath id="freepik--clip-path-4--inject-2"><path d="M359.63,419.37v7.1H225.07v-7.1a4.35,4.35,0,0,1,4.35-4.35H355.27A4.36,4.36,0,0,1,359.63,419.37Z" style="fill:#757575;stroke:#263238;stroke-linecap:round;stroke-linejoin:round"></path></clipPath><clipPath id="freepik--clip-path-5--inject-2"><path d="M131.63,141.88l-5.68,6.3-5.69,6.31-8.75-.8,4.32,4.55-5.11,5.65c-14.09-8.79-18.31-20.31-10.58-22.47l.54-.14C108.77,139.31,128.07,140.5,131.63,141.88Z" style="fill:#EA702D;stroke:#263238;stroke-linecap:round;stroke-linejoin:round"></path></clipPath><clipPath id="freepik--clip-path-6--inject-2"><path d="M154.91,180.55c-5.15,6-12.29,13-17.46,18.94a53.24,53.24,0,0,0-5.25,6.83s-27-3.69-33.57-15.2C98,190,115,148.22,128.39,142.34c7.85-3.43,29.76,13,33,26.95C162,171.58,159.09,175.71,154.91,180.55Z" style="fill:#EA702D;stroke:#263238;stroke-linecap:round;stroke-linejoin:round"></path></clipPath></defs></svg>