<svg width="38" height="38" viewBox="0 0 38 38" fill="none" xmlns="http://www.w3.org/2000/svg">
<rect width="38" height="38" fill="#1DA1F2"/>
<path d="M22.5422 11.0034V11H23.4224L23.744 11.0645C23.9584 11.1064 24.153 11.1613 24.3279 11.2292C24.5029 11.2971 24.6721 11.3763 24.8357 11.4668C24.9994 11.5574 25.1477 11.6496 25.2809 11.7435C25.4129 11.8363 25.5314 11.9348 25.6364 12.0389C25.7401 12.1441 25.9021 12.1713 26.1221 12.1204C26.3422 12.0695 26.5791 11.9987 26.833 11.9082C27.0869 11.8177 27.338 11.7158 27.5862 11.6026C27.8345 11.4895 27.9857 11.4176 28.0399 11.387C28.0929 11.3554 28.1211 11.3384 28.1245 11.3361L28.1279 11.331L28.1448 11.3225L28.1617 11.314L28.1786 11.3056L28.1956 11.2971L28.1989 11.292L28.204 11.2886L28.2091 11.2852L28.2125 11.2801L28.2294 11.275L28.2463 11.2716L28.243 11.2971L28.2379 11.3225L28.2294 11.348L28.221 11.3735L28.2125 11.3904L28.204 11.4074L28.1956 11.4329C28.1899 11.4499 28.1843 11.4725 28.1786 11.5008C28.173 11.5291 28.1194 11.6422 28.0178 11.8403C27.9163 12.0383 27.7893 12.2392 27.637 12.4429C27.4847 12.6466 27.3481 12.8005 27.2274 12.9047C27.1055 13.0099 27.0249 13.0835 26.9853 13.1253C26.9459 13.1683 26.8979 13.2079 26.8415 13.2442L26.7568 13.3002L26.7399 13.3087L26.723 13.3172L26.7196 13.3222L26.7145 13.3256L26.7095 13.329L26.7061 13.3341L26.6891 13.3426L26.6722 13.3511L26.6688 13.3562L26.6637 13.3596L26.6587 13.363L26.6553 13.3681L26.6519 13.3732L26.6468 13.3766L26.6417 13.38L26.6384 13.3851H26.723L27.1969 13.2832C27.5129 13.2153 27.8147 13.1333 28.1025 13.0371L28.5595 12.8843L28.6103 12.8673L28.6356 12.8588L28.6526 12.8503L28.6695 12.8418L28.6864 12.8334L28.7033 12.8249L28.7372 12.8198L28.771 12.8164V12.8503L28.7626 12.8537L28.7541 12.8588L28.7508 12.8639L28.7457 12.8673L28.7406 12.8707L28.7372 12.8758L28.7338 12.8809L28.7287 12.8843L28.7237 12.8877L28.7203 12.8928L28.7169 12.8979L28.7118 12.9013L28.7033 12.9182L28.6949 12.9352L28.6898 12.9386C28.6876 12.942 28.6159 13.0382 28.4748 13.2272C28.3338 13.4173 28.2576 13.5135 28.2463 13.5158C28.2351 13.5192 28.2193 13.5361 28.1989 13.5667C28.1798 13.5984 28.0602 13.7246 27.8401 13.9453C27.6201 14.1659 27.4046 14.3623 27.1936 14.5343C26.9814 14.7075 26.8742 14.9202 26.872 15.1726C26.8686 15.4238 26.8556 15.7079 26.833 16.0248C26.8104 16.3416 26.7681 16.684 26.7061 17.0518C26.644 17.4196 26.5481 17.8355 26.4183 18.2995C26.2886 18.7635 26.1306 19.2161 25.9444 19.6575C25.7582 20.0989 25.5636 20.495 25.3604 20.8458C25.1573 21.1966 24.9711 21.4937 24.8019 21.737C24.6326 21.9803 24.4605 22.2095 24.2856 22.4245C24.1107 22.6395 23.8896 22.8817 23.6221 23.1511C23.3536 23.4193 23.2069 23.5664 23.1821 23.5924C23.1561 23.6173 23.0455 23.7101 22.8503 23.8708C22.6562 24.0327 22.4475 24.1945 22.224 24.3563C22.0017 24.517 21.7975 24.6511 21.6113 24.7587C21.4251 24.8662 21.2006 24.9889 20.9376 25.127C20.6759 25.2662 20.3926 25.3952 20.088 25.5141C19.7833 25.6329 19.4617 25.7432 19.1232 25.8451C18.7846 25.9469 18.4574 26.0262 18.1415 26.0827C17.8255 26.1393 17.4672 26.1874 17.0666 26.227L16.4658 26.2864V26.2949H15.3656V26.2864L15.2217 26.278C15.1258 26.2723 15.0468 26.2666 14.9847 26.261C14.9227 26.2553 14.6885 26.2242 14.2823 26.1676C13.8761 26.111 13.5573 26.0544 13.326 25.9979C13.0947 25.9413 12.7505 25.8338 12.2935 25.6753C11.8365 25.5169 11.4455 25.3567 11.1205 25.1949C10.7967 25.0342 10.5935 24.9324 10.5112 24.8894C10.4299 24.8475 10.3385 24.7954 10.237 24.7332L10.0846 24.6398L10.0813 24.6347L10.0762 24.6313L10.0711 24.6279L10.0677 24.6228L10.0508 24.6144L10.0339 24.6059L10.0305 24.6008L10.0254 24.5974L10.0203 24.594L10.0169 24.5889L10.0136 24.5838L10.0085 24.5804H10V24.5465L10.0169 24.5499L10.0339 24.5549L10.11 24.5634C10.1608 24.5691 10.299 24.5776 10.5247 24.5889C10.7504 24.6002 10.9902 24.6002 11.2441 24.5889C11.498 24.5776 11.7575 24.5521 12.0227 24.5125C12.2879 24.4729 12.601 24.405 12.9621 24.3088C13.3232 24.2126 13.6549 24.0983 13.9573 23.9659C14.2586 23.8324 14.473 23.7328 14.6005 23.6671C14.7269 23.6026 14.9199 23.4827 15.1794 23.3072L15.5687 23.0441L15.5721 23.039L15.5772 23.0356L15.5822 23.0322L15.5856 23.0271L15.589 23.0221L15.5941 23.0187L15.5992 23.0153L15.6025 23.0102L15.6195 23.0051L15.6364 23.0017L15.6398 22.9847L15.6449 22.9677L15.65 22.9643L15.6533 22.9592L15.5179 22.9508C15.4276 22.9451 15.3402 22.9394 15.2556 22.9338C15.1709 22.9281 15.0383 22.9027 14.8578 22.8574C14.6773 22.8121 14.4826 22.7442 14.2738 22.6537C14.0651 22.5632 13.862 22.4556 13.6645 22.3312C13.467 22.2067 13.3243 22.1031 13.2363 22.0205C13.1494 21.939 13.0365 21.8236 12.8977 21.6742C12.7601 21.5237 12.6405 21.3692 12.5389 21.2108C12.4374 21.0523 12.3403 20.8695 12.2478 20.6625L12.1073 20.3535L12.0988 20.328L12.0904 20.3026L12.0853 20.2856L12.0819 20.2686L12.1073 20.272L12.1327 20.2771L12.3189 20.3026C12.443 20.3196 12.6377 20.3252 12.9028 20.3196C13.168 20.3139 13.3514 20.3026 13.4529 20.2856C13.5545 20.2686 13.6165 20.2573 13.6391 20.2517L13.673 20.2432L13.7153 20.2347L13.7576 20.2262L13.761 20.2211L13.7661 20.2177L13.7712 20.2143L13.7745 20.2092L13.7407 20.2007L13.7068 20.1922L13.673 20.1838L13.6391 20.1753L13.6053 20.1668C13.5827 20.1611 13.5432 20.1498 13.4868 20.1328C13.4304 20.1158 13.278 20.0536 13.0298 19.9461C12.7815 19.8386 12.5841 19.7339 12.4374 19.632C12.2903 19.5299 12.1501 19.4182 12.0176 19.2976C11.8856 19.1754 11.7406 19.0181 11.5826 18.8257C11.4246 18.6333 11.2836 18.4098 11.1594 18.1552C11.0353 17.9005 10.9422 17.6572 10.8802 17.4252C10.8183 17.1946 10.7776 16.9588 10.7583 16.7207L10.7278 16.3643L10.7447 16.3677L10.7617 16.3727L10.7786 16.3812L10.7955 16.3897L10.8125 16.3982L10.8294 16.4067L11.0917 16.5255C11.2666 16.6048 11.4839 16.6727 11.7434 16.7292C12.0029 16.7858 12.1581 16.8169 12.2089 16.8226L12.285 16.8311H12.4374L12.434 16.826L12.4289 16.8226L12.4238 16.8192L12.4204 16.8141L12.4171 16.809L12.412 16.8056L12.4069 16.8022L12.4035 16.7971L12.3866 16.7886L12.3697 16.7802L12.3663 16.7751L12.3612 16.7717L12.3561 16.7683L12.3527 16.7632L12.3358 16.7547L12.3189 16.7462L12.3155 16.7411C12.3121 16.7388 12.2636 16.7026 12.1699 16.6325C12.0774 16.5612 11.9804 16.4689 11.8788 16.3558C11.7772 16.2426 11.6757 16.1238 11.5741 15.9993C11.4724 15.8745 11.3818 15.741 11.3033 15.6004C11.2243 15.4589 11.1408 15.2789 11.0528 15.0605C10.9659 14.8433 10.8999 14.6243 10.8548 14.4036C10.8096 14.1829 10.7843 13.9651 10.7786 13.75C10.773 13.535 10.7786 13.3511 10.7955 13.1983C10.8125 13.0455 10.8463 12.873 10.8971 12.6806C10.9479 12.4882 11.0212 12.2845 11.1171 12.0695L11.261 11.7469L11.2695 11.7215L11.2779 11.696L11.283 11.6926L11.2864 11.6875L11.2898 11.6824L11.2948 11.679L11.2999 11.6824L11.3033 11.6875L11.3067 11.6926L11.3118 11.696L11.3169 11.6994L11.3202 11.7045L11.3236 11.7096L11.3287 11.713L11.3372 11.7299L11.3456 11.7469L11.3507 11.7503L11.3541 11.7554L11.5826 12.01C11.7349 12.1798 11.9155 12.3694 12.1242 12.5787C12.333 12.7881 12.4486 12.8967 12.4712 12.9047C12.4938 12.9137 12.522 12.9397 12.5558 12.9827C12.5897 13.0246 12.7025 13.1248 12.8944 13.2832C13.0862 13.4416 13.3373 13.6256 13.6476 13.8349C13.9579 14.0443 14.3021 14.2508 14.6801 14.4545C15.0581 14.6582 15.4643 14.8421 15.8987 15.0062C16.3332 15.1703 16.6379 15.2778 16.8128 15.3288C16.9877 15.3797 17.2867 15.4447 17.7098 15.524C18.133 15.6032 18.4518 15.6541 18.6662 15.6768C18.8806 15.6994 19.0273 15.7124 19.1062 15.7158L19.2247 15.7192L19.2214 15.6937L19.2163 15.6683L19.1824 15.4561C19.1598 15.3146 19.1486 15.1166 19.1486 14.8619C19.1486 14.6073 19.1683 14.3725 19.2078 14.1574C19.2473 13.9424 19.3065 13.7246 19.3855 13.5039C19.4645 13.2832 19.5418 13.1061 19.6174 12.9726C19.6942 12.8401 19.7946 12.6891 19.9187 12.5193C20.0428 12.3496 20.2036 12.1741 20.4011 11.9931C20.5986 11.812 20.8242 11.6507 21.0781 11.5093C21.332 11.3678 21.5662 11.2603 21.7806 11.1867C21.995 11.1132 22.1755 11.0651 22.3222 11.0424C22.4689 11.0198 22.5422 11.0068 22.5422 11.0034V11.0034Z" fill="white"/>
</svg>
