<svg width="62" height="63" viewBox="0 0 62 63" fill="none" xmlns="http://www.w3.org/2000/svg">
<rect x="16.3516" y="42.4717" width="14.2422" height="4.90779" fill="white"/>
<path d="M46.4801 20.0146H15.2484C14.6568 20.0146 14.0893 20.2497 13.671 20.668C13.2526 21.0864 13.0176 21.6538 13.0176 22.2455V25.9635C13.0176 26.5552 13.2526 27.1226 13.671 27.5409C14.0893 27.9593 14.6568 28.1943 15.2484 28.1943H46.4801C47.0717 28.1943 47.6391 27.9593 48.0575 27.5409C48.4759 27.1226 48.7109 26.5552 48.7109 25.9635V22.2455C48.7109 21.6538 48.4759 21.0864 48.0575 20.668C47.6391 20.2497 47.0717 20.0146 46.4801 20.0146ZM17.851 24.1045C17.851 23.7368 17.9601 23.3774 18.1644 23.0717C18.3686 22.7659 18.659 22.5277 18.9987 22.387C19.3383 22.2463 19.7121 22.2094 20.0728 22.2812C20.4334 22.3529 20.7646 22.53 21.0246 22.7899C21.2846 23.0499 21.4617 23.3812 21.5334 23.7418C21.6051 24.1024 21.5683 24.4762 21.4276 24.8159C21.2869 25.1556 21.0486 25.4459 20.7429 25.6502C20.4372 25.8545 20.0778 25.9635 19.7101 25.9635C19.2172 25.9631 18.7445 25.7671 18.396 25.4186C18.0474 25.07 17.8514 24.5974 17.851 24.1045V24.1045ZM25.659 25.9635C25.2913 25.9635 24.9319 25.8545 24.6261 25.6502C24.3204 25.4459 24.0822 25.1556 23.9414 24.8159C23.8007 24.4762 23.7639 24.1024 23.8357 23.7418C23.9074 23.3812 24.0844 23.0499 24.3444 22.7899C24.6044 22.53 24.9357 22.3529 25.2963 22.2812C25.6569 22.2094 26.0307 22.2463 26.3704 22.387C26.7101 22.5277 27.0004 22.7659 27.2047 23.0717C27.409 23.3774 27.518 23.7368 27.518 24.1045C27.5172 24.5973 27.3211 25.0697 26.9726 25.4181C26.6242 25.7666 26.1518 25.9627 25.659 25.9635V25.9635Z" fill="#302CFF"/>
<path d="M46.8132 16.3737L41.0205 13.4781C40.8134 13.3778 40.5858 13.3269 40.3557 13.3294H21.3728C21.1421 13.3292 20.9145 13.3827 20.708 13.4856L14.9079 16.3812C14.7608 16.4581 14.6437 16.5821 14.5753 16.7333C14.5068 16.8845 14.4909 17.0542 14.53 17.2155C14.5692 17.3768 14.6612 17.5204 14.7914 17.6233C14.9216 17.7263 15.0825 17.7827 15.2484 17.7836H46.4801C46.6481 17.7843 46.8114 17.7281 46.9433 17.6241C47.0752 17.5201 47.1681 17.3745 47.2067 17.211C47.2454 17.0475 47.2275 16.8758 47.156 16.7237C47.0846 16.5717 46.9638 16.4483 46.8132 16.3737V16.3737Z" fill="#302CFF"/>
<path d="M46.4801 30.4252H15.2484C14.6568 30.4252 14.0893 30.6602 13.671 31.0786C13.2526 31.4969 13.0176 32.0643 13.0176 32.656V36.3741C13.0176 36.9657 13.2526 37.5331 13.671 37.9515C14.0893 38.3699 14.6568 38.6049 15.2484 38.6049H46.4801C47.0717 38.6049 47.6391 38.3699 48.0575 37.9515C48.4759 37.5331 48.7109 36.9657 48.7109 36.3741V32.656C48.7109 32.0643 48.4759 31.4969 48.0575 31.0786C47.6391 30.6602 47.0717 30.4252 46.4801 30.4252ZM17.851 34.515C17.851 34.1473 17.9601 33.7879 18.1644 33.4822C18.3686 33.1765 18.659 32.9382 18.9987 32.7975C19.3383 32.6568 19.7121 32.62 20.0728 32.6917C20.4334 32.7635 20.7646 32.9405 21.0246 33.2005C21.2846 33.4605 21.4617 33.7917 21.5334 34.1524C21.6051 34.513 21.5683 34.8868 21.4276 35.2264C21.2869 35.5661 21.0486 35.8565 20.7429 36.0608C20.4372 36.265 20.0778 36.3741 19.7101 36.3741C19.2172 36.3737 18.7445 36.1777 18.396 35.8291C18.0474 35.4806 17.8514 35.008 17.851 34.515ZM25.659 36.3741C25.2913 36.3741 24.9319 36.265 24.6261 36.0608C24.3204 35.8565 24.0822 35.5661 23.9414 35.2264C23.8007 34.8868 23.7639 34.513 23.8357 34.1524C23.9074 33.7917 24.0844 33.4605 24.3444 33.2005C24.6044 32.9405 24.9357 32.7635 25.2963 32.6917C25.6569 32.62 26.0307 32.6568 26.3704 32.7975C26.7101 32.9382 27.0004 33.1765 27.2047 33.4822C27.409 33.7879 27.518 34.1473 27.518 34.515C27.5172 35.0078 27.3211 35.4802 26.9726 35.8287C26.6242 36.1772 26.1518 36.3733 25.659 36.3741V36.3741Z" fill="#302CFF"/>
<path d="M46.4801 40.8357H15.2484C14.6568 40.8357 14.0893 41.0708 13.671 41.4891C13.2526 41.9075 13.0176 42.4749 13.0176 43.0666V46.7846C13.0176 47.3763 13.2526 47.9437 13.671 48.3621C14.0893 48.7804 14.6568 49.0155 15.2484 49.0155H46.4801C47.0717 49.0155 47.6391 48.7804 48.0575 48.3621C48.4759 47.9437 48.7109 47.3763 48.7109 46.7846V43.0666C48.7109 42.4749 48.4759 41.9075 48.0575 41.4891C47.6391 41.0708 47.0717 40.8357 46.4801 40.8357ZM17.851 44.9256C17.851 44.5579 17.9601 44.1985 18.1644 43.8928C18.3686 43.5871 18.659 43.3488 18.9987 43.2081C19.3383 43.0674 19.7121 43.0306 20.0728 43.1023C20.4334 43.174 20.7646 43.3511 21.0246 43.6111C21.2846 43.8711 21.4617 44.2023 21.5334 44.5629C21.6051 44.9235 21.5683 45.2973 21.4276 45.637C21.2869 45.9767 21.0486 46.2671 20.7429 46.4713C20.4372 46.6756 20.0778 46.7846 19.7101 46.7846C19.2172 46.7842 18.7445 46.5882 18.396 46.2397C18.0474 45.8911 17.8514 45.4185 17.851 44.9256V44.9256ZM25.659 46.7846C25.2913 46.7846 24.9319 46.6756 24.6261 46.4713C24.3204 46.2671 24.0822 45.9767 23.9414 45.637C23.8007 45.2973 23.7639 44.9235 23.8357 44.5629C23.9074 44.2023 24.0844 43.8711 24.3444 43.6111C24.6044 43.3511 24.9357 43.174 25.2963 43.1023C25.6569 43.0306 26.0307 43.0674 26.3704 43.2081C26.7101 43.3488 27.0004 43.5871 27.2047 43.8928C27.409 44.1985 27.518 44.5579 27.518 44.9256C27.5172 45.4184 27.3211 45.8908 26.9726 46.2393C26.6242 46.5877 26.1518 46.7838 25.659 46.7846Z" fill="#302CFF"/>
<rect opacity="0.13" y="0.308105" width="61.7285" height="61.7285" fill="#302CFF"/>
</svg>
