<svg width="85" height="85" viewBox="0 0 85 85" fill="none" xmlns="http://www.w3.org/2000/svg">
<rect width="85" height="85" fill="#302CFF" fill-opacity="0.1"/>
<path d="M67.1133 21.6595C66.6085 21.316 66.0204 21.1148 65.411 21.0771C64.8015 21.0394 64.1931 21.1665 63.6498 21.4452C60.8355 22.589 57.8426 23.231 54.8068 23.342C51.3436 23.0871 47.9285 22.3818 44.6478 21.2437C37.4529 19.1433 34.9603 18.6461 29.4436 19.3577C28.6686 19.4588 27.957 19.8387 27.4418 20.4265C26.9266 21.0142 26.6432 21.7695 26.6445 22.5511V54.7426C26.6446 55.1959 26.7405 55.6441 26.9259 56.0577C27.1113 56.4713 27.3821 56.841 27.7205 57.1425C28.0589 57.4441 28.4573 57.6707 28.8894 57.8075C29.3216 57.9442 29.7778 57.9881 30.228 57.9361C35.0611 57.381 37.3115 57.8525 44.0348 59.82C47.5122 61.025 51.1348 61.7609 54.8068 62.0082C58.5579 61.8691 62.2502 61.0318 65.6945 59.5392C67.1347 58.9906 68.4378 58.2533 68.4378 56.2643V24.2871C68.4421 23.7753 68.3242 23.2699 68.0938 22.8129C67.8634 22.3559 67.5273 21.9604 67.1133 21.6595Z" fill="#302CFF"/>
<path opacity="0.28" d="M20.2149 17C19.3622 17 18.5445 17.3387 17.9416 17.9416C17.3387 18.5445 17 19.3622 17 20.2149V65.223C17 66.0756 17.3387 66.8934 17.9416 67.4963C18.5445 68.0992 19.3622 68.4379 20.2149 68.4379C21.0675 68.4379 21.8852 68.0992 22.4881 67.4963C23.091 66.8934 23.4297 66.0756 23.4297 65.223V20.2149C23.4297 19.3622 23.091 18.5445 22.4881 17.9416C21.8852 17.3387 21.0675 17 20.2149 17V17Z" fill="#302CFF"/>
</svg>
