<svg width="81" height="81" viewBox="0 0 81 81" fill="none" xmlns="http://www.w3.org/2000/svg">
<path opacity="0.4" d="M63.428 49.2398C63.428 55.7722 58.1833 61.0637 51.6509 61.0872H51.6275H28.4245C21.9155 61.0872 16.6006 55.8191 16.6006 49.2867V49.2632C16.6006 49.2632 16.6146 38.9003 16.6334 33.6885C16.6357 32.7098 17.7596 32.1619 18.5252 32.7706C24.0883 37.1841 34.0368 45.2314 34.1609 45.3368C35.8232 46.669 37.9305 47.4206 40.0845 47.4206C42.2386 47.4206 44.3458 46.669 46.0082 45.311C46.1323 45.2291 55.8583 37.4229 61.5057 32.9369C62.2737 32.3258 63.4022 32.8737 63.4046 33.85C63.428 39.0221 63.428 49.2398 63.428 49.2398" fill="#302CFF"/>
<path d="M62.201 25.2022C60.1734 21.3811 56.1837 18.9414 51.7913 18.9414H28.4244C24.032 18.9414 20.0423 21.3811 18.0147 25.2022C17.5605 26.0568 17.7759 27.1222 18.5321 27.7262L35.9168 41.6316C37.1343 42.615 38.6094 43.1043 40.0844 43.1043C40.0938 43.1043 40.1008 43.1043 40.1079 43.1043C40.1149 43.1043 40.1242 43.1043 40.1313 43.1043C41.6063 43.1043 43.0814 42.615 44.2989 41.6316L61.6836 27.7262C62.4398 27.1222 62.6552 26.0568 62.201 25.2022" fill="#302CFF"/>
<rect opacity="0.14" width="80.0279" height="80.0279" fill="#302CFF"/>
</svg>
