<svg width="85" height="85" viewBox="0 0 85 85" fill="none" xmlns="http://www.w3.org/2000/svg">
<rect width="85" height="85" fill="#302CFF" fill-opacity="0.1"/>
<path opacity="0.3" d="M47.4013 66.8567H37.8333C37.6158 66.8567 37.4018 66.9124 37.2118 67.0184C37.0219 67.1243 36.8621 67.2771 36.7478 67.4623C36.6336 67.6474 36.5685 67.8586 36.5589 68.076C36.5492 68.2933 36.5953 68.5095 36.6928 68.704L37.5501 70.416C37.971 71.2643 38.6208 71.978 39.4261 72.4762C40.2314 72.9744 41.1601 73.2374 42.107 73.2354H43.1276C44.0736 73.2388 45.0018 72.9778 45.8074 72.4819C46.613 71.986 47.264 71.2749 47.6871 70.4288L48.5444 68.7167C48.642 68.5221 48.6881 68.3056 48.6783 68.0881C48.6686 67.8705 48.6033 67.6591 48.4887 67.4739C48.3741 67.2887 48.214 67.136 48.0237 67.0302C47.8334 66.9244 47.6191 66.869 47.4013 66.8695V66.8567Z" fill="#302CFF"/>
<path opacity="0.3" d="M42.6179 23.4816C43.2946 23.4816 43.9436 23.2128 44.422 22.7343C44.9005 22.2558 45.1694 21.6069 45.1694 20.9302V14.5515C45.1694 13.8748 44.9005 13.2258 44.422 12.7473C43.9436 12.2688 43.2946 12 42.6179 12C41.9412 12 41.2922 12.2688 40.8137 12.7473C40.3352 13.2258 40.0664 13.8748 40.0664 14.5515V20.9302C40.0664 21.6069 40.3352 22.2558 40.8137 22.7343C41.2922 23.2128 41.9412 23.4816 42.6179 23.4816Z" fill="#302CFF"/>
<path opacity="0.3" d="M66.07 21.716C65.5915 21.2377 64.9426 20.9689 64.2661 20.9689C63.5895 20.9689 62.9407 21.2377 62.4622 21.716L57.9537 26.227C57.71 26.4624 57.5157 26.7439 57.3819 27.0552C57.2482 27.3665 57.1778 27.7013 57.1749 28.0401C57.172 28.3788 57.2365 28.7148 57.3648 29.0284C57.4931 29.342 57.6826 29.6268 57.9221 29.8664C58.1617 30.106 58.4466 30.2954 58.7601 30.4237C59.0737 30.552 59.4097 30.6166 59.7484 30.6136C60.0872 30.6107 60.422 30.5403 60.7333 30.4066C61.0446 30.2728 61.3262 30.0785 61.5615 29.8348L66.07 25.3238C66.5483 24.8453 66.817 24.1964 66.817 23.5199C66.817 22.8433 66.5483 22.1945 66.07 21.716V21.716Z" fill="#302CFF"/>
<path opacity="0.3" d="M70.6837 42.6177H65.5808C64.9041 42.6177 64.2551 42.8865 63.7766 43.365C63.2981 43.8435 63.0293 44.4925 63.0293 45.1692C63.0293 45.8459 63.2981 46.4949 63.7766 46.9733C64.2551 47.4518 64.9041 47.7207 65.5808 47.7207H70.6837C71.3604 47.7207 72.0094 47.4518 72.4879 46.9733C72.9664 46.4949 73.2352 45.8459 73.2352 45.1692C73.2352 44.4925 72.9664 43.8435 72.4879 43.365C72.0094 42.8865 71.3604 42.6177 70.6837 42.6177Z" fill="#302CFF"/>
<path opacity="0.3" d="M27.2833 26.227L22.7723 21.716C22.291 21.2512 21.6465 20.9941 20.9775 20.9999C20.3086 21.0057 19.6686 21.274 19.1956 21.7471C18.7225 22.2202 18.4542 22.8601 18.4483 23.5291C18.4425 24.1981 18.6997 24.8426 19.1645 25.3238L23.6755 29.8348C24.1567 30.2996 24.8012 30.5568 25.4702 30.5509C26.1392 30.5451 26.7791 30.2768 27.2522 29.8037C27.7252 29.3307 27.9936 28.6907 27.9994 28.0217C28.0052 27.3527 27.748 26.7082 27.2833 26.227Z" fill="#302CFF"/>
<path opacity="0.3" d="M19.6544 42.6177H14.5515C13.8748 42.6177 13.2258 42.8865 12.7473 43.365C12.2688 43.8435 12 44.4925 12 45.1692C12 45.8459 12.2688 46.4949 12.7473 46.9733C13.2258 47.4518 13.8748 47.7207 14.5515 47.7207H19.6544C20.3311 47.7207 20.9801 47.4518 21.4586 46.9733C21.9371 46.4949 22.2059 45.8459 22.2059 45.1692C22.2059 44.4925 21.9371 43.8435 21.4586 43.365C20.9801 42.8865 20.3311 42.6177 19.6544 42.6177Z" fill="#302CFF"/>
<path d="M42.6176 27.3088C39.0917 27.3141 35.6592 28.4429 32.8184 30.5314C29.9777 32.62 27.8765 35.5595 26.8198 38.9234C25.7632 42.2873 25.8061 45.9003 26.9424 49.2381C28.0787 52.5759 30.2492 55.4647 33.1389 57.4851C33.3082 57.6026 33.4466 57.7593 33.5421 57.942C33.6376 58.1246 33.6875 58.3277 33.6874 58.5338V60.478C33.6874 61.1547 33.9562 61.8037 34.4347 62.2822C34.9132 62.7606 35.5622 63.0295 36.2389 63.0295H48.9963C49.673 63.0295 50.3219 62.7606 50.8004 62.2822C51.2789 61.8037 51.5477 61.1547 51.5477 60.478V58.5312C51.5477 58.3251 51.5975 58.1221 51.6931 57.9394C51.7886 57.7568 51.927 57.6 52.0963 57.4826C54.9932 55.4664 57.1708 52.578 58.3118 49.2381C59.4528 45.8982 59.4977 42.2813 58.44 38.9141C57.3822 35.5469 55.277 32.6054 52.4311 30.5179C49.5851 28.4305 46.147 27.3062 42.6176 27.3088V27.3088Z" fill="#302CFF"/>
</svg>
