<svg width="19" height="19" viewBox="0 0 19 19" fill="none" xmlns="http://www.w3.org/2000/svg">
<path d="M9.00879 0C7.22702 0 5.48526 0.528356 4.00378 1.51825C2.52229 2.50815 1.36761 3.91513 0.685757 5.56127C0.00390338 7.20741 -0.174501 9.01878 0.173105 10.7663C0.520711 12.5138 1.37872 14.1191 2.63862 15.379C3.89852 16.6389 5.50373 17.4969 7.25126 17.8445C8.9988 18.1921 10.8102 18.0137 12.4563 17.3318C14.1024 16.65 15.5094 15.4953 16.4993 14.0138C17.4892 12.5323 18.0176 10.7906 18.0176 9.00879C18.015 6.6203 17.065 4.33038 15.3761 2.64147C13.6872 0.95255 11.3973 0.00258333 9.00879 0V0ZM12.9126 12.9284C12.7765 13.0724 12.5896 13.1578 12.3916 13.1665C12.1936 13.1752 12 13.1065 11.8518 12.9749L8.12893 9.56208C8.05172 9.49201 7.98994 9.40662 7.94755 9.31136C7.90515 9.2161 7.88306 9.11306 7.88269 9.00879V4.87976C7.88269 4.68065 7.96179 4.4897 8.10258 4.34891C8.24337 4.20812 8.43432 4.12903 8.63343 4.12903C8.83253 4.12903 9.02348 4.20812 9.16427 4.34891C9.30506 4.4897 9.38416 4.68065 9.38416 4.87976V8.67847L12.8631 11.8676C12.9361 11.934 12.9953 12.0141 13.0373 12.1034C13.0794 12.1927 13.1034 12.2895 13.108 12.3881C13.1126 12.4867 13.0977 12.5852 13.0642 12.678C13.0306 12.7709 12.9791 12.8562 12.9126 12.9291V12.9284Z" fill="#302CFF"/>
</svg>
