<svg width="85" height="85" viewBox="0 0 85 85" fill="none" xmlns="http://www.w3.org/2000/svg">
<rect width="85" height="85" fill="#1DA1F2"/>
<path d="M51.1835 21.4759V21.4666H53.6043L54.4888 21.644C55.0785 21.7592 55.6139 21.9101 56.0949 22.0969C56.576 22.2836 57.0415 22.5015 57.4915 22.7505C57.9415 22.9995 58.3497 23.2532 58.7159 23.5115C59.079 23.7668 59.4049 24.0376 59.6935 24.3239C59.979 24.6134 60.4244 24.6881 61.0296 24.548C61.6347 24.408 62.2865 24.2134 62.9848 23.9644C63.6831 23.7154 64.3737 23.4353 65.0564 23.124C65.7392 22.8127 66.1551 22.6151 66.3041 22.5311C66.4499 22.4439 66.5275 22.3973 66.5369 22.391L66.5461 22.377L66.5927 22.3536L66.6392 22.3303L66.6858 22.307L66.7323 22.2836L66.7416 22.2696L66.7556 22.2603L66.7696 22.2509L66.7789 22.2369L66.8254 22.2229L66.872 22.2136L66.8627 22.2836L66.8487 22.3536L66.8254 22.4237L66.8022 22.4937L66.7789 22.5404L66.7556 22.5871L66.7323 22.6571C66.7168 22.7038 66.7013 22.7661 66.6858 22.8439C66.6703 22.9217 66.5228 23.2329 66.2435 23.7777C65.9642 24.3224 65.6151 24.8749 65.1961 25.4351C64.7771 25.9954 64.4016 26.4187 64.0695 26.7051C63.7343 26.9946 63.5124 27.1969 63.4038 27.312C63.2952 27.4303 63.1633 27.5392 63.0081 27.6389L62.7753 27.7929L62.7287 27.8163L62.6822 27.8396L62.6729 27.8536L62.6589 27.863L62.645 27.8723L62.6356 27.8863L62.5891 27.9097L62.5425 27.933L62.5333 27.947L62.5193 27.9564L62.5053 27.9657L62.496 27.9797L62.4867 27.9937L62.4727 28.003L62.4587 28.0124L62.4494 28.0264H62.6822L63.9857 27.7463C64.8547 27.5595 65.6849 27.3338 66.4763 27.0693L67.7332 26.6491L67.8729 26.6024L67.9427 26.579L67.9893 26.5557L68.0358 26.5323L68.0824 26.509L68.1289 26.4856L68.222 26.4716L68.3151 26.4623V26.5557L68.2919 26.565L68.2686 26.579L68.2593 26.593L68.2453 26.6024L68.2314 26.6117L68.222 26.6257L68.2128 26.6397L68.1988 26.6491L68.1848 26.6584L68.1755 26.6724L68.1662 26.6864L68.1522 26.6957L68.1289 26.7424L68.1057 26.7891L68.0917 26.7985C68.0855 26.8078 67.8884 27.0723 67.5005 27.5922C67.1125 28.1151 66.903 28.3796 66.872 28.3859C66.841 28.3952 66.7975 28.4419 66.7416 28.526C66.6889 28.6131 66.3599 28.9602 65.7547 29.5671C65.1495 30.1741 64.5568 30.7141 63.9764 31.1872C63.393 31.6635 63.0981 32.2486 63.0919 32.9428C63.0826 33.6338 63.0469 34.4151 62.9848 35.2866C62.9227 36.1581 62.8064 37.0996 62.6356 38.1113C62.465 39.1229 62.2012 40.2668 61.8442 41.5429C61.4874 42.8191 61.0528 44.0641 60.5407 45.278C60.0287 46.492 59.4933 47.5814 58.9347 48.5463C58.376 49.5112 57.8639 50.3283 57.3984 50.9975C56.9329 51.6667 56.4596 52.297 55.9785 52.8884C55.4975 53.4798 54.8892 54.1459 54.1537 54.8867C53.415 55.6244 53.0116 56.029 52.9433 56.1006C52.8719 56.1691 52.5678 56.4243 52.0308 56.8663C51.497 57.3114 50.9228 57.7565 50.3083 58.2016C49.6969 58.6436 49.1352 59.0125 48.6231 59.3082C48.111 59.6038 47.4934 59.9415 46.7703 60.3213C46.0503 60.7042 45.2712 61.059 44.4333 61.3858C43.5953 61.7126 42.7108 62.0161 41.7797 62.2963C40.8487 62.5764 39.9487 62.7943 39.0797 62.9499C38.2107 63.1055 37.2253 63.2378 36.1235 63.3468L34.4709 63.5102V63.5335H31.4449V63.5102L31.0492 63.4868C30.7854 63.4713 30.5682 63.4557 30.3975 63.4401C30.2268 63.4246 29.5828 63.339 28.4655 63.1834C27.3482 63.0277 26.4715 62.8721 25.8352 62.7165C25.199 62.5608 24.2524 62.2651 22.9955 61.8294C21.7385 61.3936 20.6632 60.9532 19.7693 60.5081C18.8786 60.0661 18.32 59.7859 18.0934 59.6677C17.87 59.5525 17.6186 59.4093 17.3392 59.2381L16.9203 58.9813L16.911 58.9673L16.897 58.958L16.883 58.9486L16.8737 58.9346L16.8272 58.9113L16.7806 58.8879L16.7713 58.8739L16.7573 58.8646L16.7434 58.8553L16.7341 58.8413L16.7248 58.8273L16.7108 58.8179H16.6875V58.7245L16.7341 58.7339L16.7806 58.7479L16.9901 58.7712C17.1298 58.7868 17.51 58.8101 18.1307 58.8413C18.7514 58.8724 19.4109 58.8724 20.1092 58.8413C20.8075 58.8101 21.5213 58.7401 22.2506 58.6312C22.98 58.5222 23.8412 58.3355 24.8343 58.0709C25.8275 57.8063 26.7399 57.4919 27.5717 57.1278C28.4004 56.7605 28.99 56.4866 29.3407 56.306C29.6883 56.1286 30.219 55.7987 30.9328 55.3162L32.0035 54.5925L32.0129 54.5785L32.0268 54.5692L32.0408 54.5599L32.0501 54.5459L32.0594 54.5318L32.0734 54.5225L32.0874 54.5132L32.0967 54.4992L32.1432 54.4852L32.1898 54.4758L32.1991 54.4291L32.213 54.3824L32.227 54.3731L32.2363 54.3591L31.8639 54.3358C31.6156 54.3202 31.3751 54.3046 31.1423 54.2891C30.9095 54.2735 30.5449 54.2035 30.0483 54.079C29.5518 53.9544 29.0164 53.7677 28.4422 53.5187C27.8681 53.2697 27.3094 52.974 26.7663 52.6316C26.2232 52.2892 25.8306 52.0044 25.5885 51.7772C25.3495 51.553 25.0392 51.2356 24.6574 50.8247C24.2788 50.4108 23.9498 49.9859 23.6705 49.5501C23.3912 49.1144 23.1243 48.6116 22.8698 48.042L22.4834 47.1923L22.4601 47.1223L22.4368 47.0522L22.4229 47.0055L22.4136 46.9589L22.4834 46.9682L22.5532 46.9822L23.0653 47.0522C23.4067 47.0989 23.9421 47.1145 24.6714 47.0989C25.4007 47.0834 25.9051 47.0522 26.1844 47.0055C26.4637 46.9589 26.6344 46.9277 26.6965 46.9122L26.7896 46.8888L26.906 46.8655L27.0223 46.8421L27.0317 46.8281L27.0456 46.8188L27.0596 46.8095L27.0689 46.7954L26.9758 46.7721L26.8827 46.7488L26.7896 46.7254L26.6965 46.7021L26.6034 46.6787C26.5413 46.6632 26.4327 46.632 26.2775 46.5853C26.1223 46.5387 25.7033 46.3674 25.0205 46.0718C24.3378 45.7761 23.7947 45.4881 23.3912 45.208C22.9867 44.9271 22.601 44.6198 22.2367 44.2882C21.8735 43.9521 21.4748 43.5194 21.0402 42.9903C20.6058 42.4611 20.2178 41.8464 19.8764 41.1461C19.535 40.4457 19.279 39.7765 19.1083 39.1384C18.9382 38.5041 18.8261 37.8555 18.7731 37.2008L18.6893 36.2203L18.7358 36.2297L18.7824 36.2437L18.829 36.267L18.8755 36.2904L18.9221 36.3137L18.9686 36.3371L19.6902 36.6639C20.1713 36.8818 20.7687 37.0685 21.4825 37.2242C22.1963 37.3798 22.6231 37.4654 22.7627 37.4809L22.9722 37.5043H23.3912L23.3819 37.4903L23.3679 37.4809L23.3539 37.4716L23.3446 37.4576L23.3354 37.4436L23.3214 37.4343L23.3074 37.4249L23.2981 37.4109L23.2515 37.3876L23.205 37.3642L23.1957 37.3502L23.1817 37.3409L23.1677 37.3315L23.1584 37.3175L23.1119 37.2942L23.0653 37.2708L23.056 37.2568C23.0467 37.2506 22.9133 37.151 22.6556 36.958C22.4011 36.7619 22.1342 36.5083 21.8549 36.197C21.5756 35.8857 21.2963 35.5589 21.017 35.2165C20.7371 34.8734 20.4879 34.5062 20.2721 34.1193C20.0549 33.7303 19.8252 33.2353 19.5831 32.6346C19.3442 32.037 19.1626 31.4347 19.0384 30.8277C18.9143 30.2208 18.8445 29.6216 18.829 29.0302C18.8135 28.4388 18.829 27.933 18.8755 27.5128C18.9221 27.0926 19.0152 26.6179 19.1548 26.0888C19.2945 25.5597 19.4962 24.9994 19.76 24.408L20.1557 23.5209L20.179 23.4508L20.2023 23.3808L20.2163 23.3715L20.2256 23.3575L20.2349 23.3435L20.2488 23.3341L20.2628 23.3435L20.2721 23.3575L20.2814 23.3715L20.2954 23.3808L20.3094 23.3901L20.3187 23.4042L20.328 23.4182L20.3419 23.4275L20.3652 23.4742L20.3885 23.5209L20.4025 23.5302L20.4118 23.5442L21.0402 24.2446C21.4592 24.7115 21.9558 25.2328 22.5299 25.8086C23.1041 26.3845 23.4222 26.6833 23.4843 26.7051C23.5464 26.73 23.6239 26.8015 23.7171 26.9199C23.8102 27.035 24.1205 27.3105 24.6481 27.7463C25.1758 28.182 25.8663 28.6878 26.7197 29.2636C27.5733 29.8395 28.5198 30.4075 29.5595 30.9678C30.5992 31.5281 31.7165 32.0339 32.9113 32.4852C34.1062 32.9365 34.9442 33.2322 35.4252 33.3723C35.9063 33.5124 36.7287 33.6913 37.8925 33.9092C39.0564 34.1271 39.9332 34.2672 40.5228 34.3294C41.1125 34.3917 41.516 34.4275 41.7332 34.4368L42.0591 34.4462L42.0498 34.3761L42.0358 34.3061L41.9427 33.7225C41.8806 33.3334 41.8496 32.7887 41.8496 32.0883C41.8496 31.388 41.9039 30.7422 42.0125 30.1507C42.1212 29.5593 42.2841 28.9602 42.5013 28.3532C42.7186 27.7463 42.9312 27.2591 43.1391 26.8918C43.3502 26.5277 43.6264 26.1121 43.9678 25.6452C44.3092 25.1783 44.7514 24.6959 45.2945 24.1979C45.8377 23.6998 46.4584 23.2563 47.1567 22.8672C47.855 22.4782 48.499 22.1824 49.0886 21.9801C49.6783 21.7778 50.1749 21.6455 50.5783 21.5833C50.9818 21.521 51.1835 21.4852 51.1835 21.4759V21.4759Z" fill="white"/>
</svg>
