<svg width="63" height="62" viewBox="0 0 63 62" fill="none" xmlns="http://www.w3.org/2000/svg">
<rect x="16.7354" y="17.4592" width="28.2486" height="26.3862" fill="white"/>
<path d="M52.2451 30.8643C52.2027 29.8446 51.9185 28.8496 51.4158 27.9614C50.9131 27.0732 50.2065 26.3173 49.3541 25.756C49.1841 25.6389 49.0609 25.4653 49.0065 25.2661C48.952 25.0669 48.9698 24.8549 49.0566 24.6675C49.4284 23.8677 49.6207 22.9962 49.6201 22.1143C49.6201 20.6059 49.0635 19.1505 48.057 18.027C47.0504 16.9036 45.6647 16.1911 44.1654 16.026C43.9767 16.0052 43.7999 15.9237 43.6616 15.7936C43.5234 15.6636 43.4311 15.4921 43.3989 15.305C43.133 13.7825 42.3389 12.4024 41.1563 11.4074C39.9737 10.4123 38.4782 9.86591 36.9326 9.86426C35.4648 9.86484 34.0405 10.3626 32.8919 11.2765C32.7877 11.3584 32.7035 11.4628 32.6456 11.5819C32.5877 11.7011 32.5576 11.8318 32.5576 11.9643V14.1833C32.5576 14.5314 32.4193 14.8652 32.1732 15.1113C31.9271 15.3575 31.5932 15.4958 31.2451 15.4958C30.897 15.4958 30.5632 15.3575 30.317 15.1113C30.0709 14.8652 29.9326 14.5314 29.9326 14.1833V11.9643C29.9326 11.8318 29.9025 11.7011 29.8446 11.5819C29.7867 11.4628 29.7025 11.3584 29.5984 11.2765C28.4497 10.3626 27.0254 9.86484 25.5576 9.86426C24.0118 9.86598 22.5161 10.4126 21.3334 11.408C20.1508 12.4034 19.3569 13.7839 19.0914 15.3068C19.0588 15.4935 18.9664 15.6646 18.8282 15.7943C18.6899 15.924 18.5133 16.0053 18.3249 16.026C16.8255 16.1911 15.4398 16.9036 14.4333 18.027C13.4267 19.1505 12.8701 20.6059 12.8701 22.1143C12.8693 22.9963 13.0616 23.8678 13.4336 24.6675C13.5203 24.8551 13.5378 25.0672 13.483 25.2665C13.4282 25.4657 13.3047 25.6391 13.1344 25.756C12.2821 26.3173 11.5757 27.0732 11.0733 27.9615C10.5709 28.8497 10.287 29.8447 10.2451 30.8643C10.2867 31.8834 10.5705 32.878 11.0729 33.7657C11.5754 34.6534 12.282 35.4087 13.1344 35.969C13.3051 36.086 13.4289 36.2597 13.4837 36.4593C13.5385 36.6589 13.5208 36.8715 13.4336 37.0593C13.0274 37.9402 12.8362 38.905 12.8759 39.8742C12.9155 40.8435 13.1847 41.7895 13.6615 42.6343C14.1383 43.4791 14.8089 44.1986 15.6181 44.7336C16.4273 45.2685 17.352 45.6036 18.3161 45.7113C18.5067 45.7299 18.6859 45.8105 18.8262 45.9407C18.9666 46.0709 19.0603 46.2436 19.0931 46.4323C19.3611 47.9527 20.1558 49.3303 21.3378 50.3235C22.5198 51.3168 24.0137 51.8622 25.5576 51.8643C27.0253 51.8628 28.4493 51.3651 29.5984 50.452C29.7025 50.3701 29.7867 50.2657 29.8446 50.1466C29.9025 50.0274 29.9326 49.8967 29.9326 49.7643V47.4333C29.9326 47.0852 30.0709 46.7513 30.317 46.5052C30.5632 46.259 30.897 46.1208 31.2451 46.1208C31.5932 46.1208 31.9271 46.259 32.1732 46.5052C32.4193 46.7513 32.5576 47.0852 32.5576 47.4333V49.7643C32.5576 49.8967 32.5877 50.0274 32.6456 50.1466C32.7035 50.2657 32.7877 50.3701 32.8919 50.452C34.0409 51.3651 35.4649 51.8628 36.9326 51.8643C38.4798 51.8642 39.9775 51.3184 41.1619 50.3229C42.3463 49.3274 43.1415 47.9459 43.4076 46.4218C43.4399 46.2347 43.5321 46.0632 43.6704 45.9332C43.8086 45.8031 43.9854 45.7215 44.1741 45.7008C45.6716 45.5337 47.0549 44.8206 48.0597 43.6977C49.0644 42.5748 49.6199 41.121 49.6201 39.6143C49.6209 38.7317 49.4286 37.8596 49.0566 37.0593C48.9695 36.8715 48.9517 36.6589 49.0065 36.4593C49.0613 36.2597 49.1851 36.086 49.3559 35.969C50.2082 35.4087 50.9149 34.6534 51.4173 33.7657C51.9197 32.878 52.2035 31.8834 52.2451 30.8643ZM22.9326 34.8018H21.1826C20.8345 34.8018 20.5007 34.6635 20.2545 34.4173C20.0084 34.1712 19.8701 33.8374 19.8701 33.4893C19.8701 33.1412 20.0084 32.8073 20.2545 32.5612C20.5007 32.315 20.8345 32.1768 21.1826 32.1768H22.9326C23.2807 32.1768 23.6146 32.315 23.8607 32.5612C24.1068 32.8073 24.2451 33.1412 24.2451 33.4893C24.2451 33.8374 24.1068 34.1712 23.8607 34.4173C23.6146 34.6635 23.2807 34.8018 22.9326 34.8018ZM24.2451 28.2393C24.2451 28.5874 24.1068 28.9212 23.8607 29.1673C23.6146 29.4135 23.2807 29.5518 22.9326 29.5518H21.1826C20.8345 29.5518 20.5007 29.4135 20.2545 29.1673C20.0084 28.9212 19.8701 28.5874 19.8701 28.2393C19.8701 27.8912 20.0084 27.5573 20.2545 27.3112C20.5007 27.065 20.8345 26.9268 21.1826 26.9268H22.9326C23.2807 26.9268 23.6146 27.065 23.8607 27.3112C24.1068 27.5573 24.2451 27.8912 24.2451 28.2393ZM32.5576 20.8018C32.5576 20.4537 32.6959 20.1198 32.942 19.8737C33.1882 19.6275 33.522 19.4893 33.8701 19.4893C34.2182 19.4893 34.5521 19.6275 34.7982 19.8737C35.0443 20.1198 35.1826 20.4537 35.1826 20.8018V22.5518C35.1826 22.8999 35.0443 23.2337 34.7982 23.4798C34.5521 23.726 34.2182 23.8643 33.8701 23.8643C33.522 23.8643 33.1882 23.726 32.942 23.4798C32.6959 23.2337 32.5576 22.8999 32.5576 22.5518V20.8018ZM27.3076 20.8018C27.3076 20.4537 27.4459 20.1198 27.692 19.8737C27.9382 19.6275 28.272 19.4893 28.6201 19.4893C28.9682 19.4893 29.3021 19.6275 29.5482 19.8737C29.7943 20.1198 29.9326 20.4537 29.9326 20.8018V22.5518C29.9326 22.8999 29.7943 23.2337 29.5482 23.4798C29.3021 23.726 28.9682 23.8643 28.6201 23.8643C28.272 23.8643 27.9382 23.726 27.692 23.4798C27.4459 23.2337 27.3076 22.8999 27.3076 22.5518V20.8018ZM29.9326 40.9268C29.9326 41.2749 29.7943 41.6087 29.5482 41.8548C29.3021 42.101 28.9682 42.2393 28.6201 42.2393C28.272 42.2393 27.9382 42.101 27.692 41.8548C27.4459 41.6087 27.3076 41.2749 27.3076 40.9268V39.1768C27.3076 38.8287 27.4459 38.4948 27.692 38.2487C27.9382 38.0025 28.272 37.8643 28.6201 37.8643C28.9682 37.8643 29.3021 38.0025 29.5482 38.2487C29.7943 38.4948 29.9326 38.8287 29.9326 39.1768V40.9268ZM35.1826 40.9268C35.1826 41.2749 35.0443 41.6087 34.7982 41.8548C34.5521 42.101 34.2182 42.2393 33.8701 42.2393C33.522 42.2393 33.1882 42.101 32.942 41.8548C32.6959 41.6087 32.5576 41.2749 32.5576 40.9268V39.1768C32.5576 38.8287 32.6959 38.4948 32.942 38.2487C33.1882 38.0025 33.522 37.8643 33.8701 37.8643C34.2182 37.8643 34.5521 38.0025 34.7982 38.2487C35.0443 38.4948 35.1826 38.8287 35.1826 39.1768V40.9268ZM36.4951 34.3643C36.4951 34.8284 36.3107 35.2735 35.9826 35.6017C35.6544 35.9299 35.2092 36.1143 34.7451 36.1143H27.7451C27.281 36.1143 26.8359 35.9299 26.5077 35.6017C26.1795 35.2735 25.9951 34.8284 25.9951 34.3643V27.3643C25.9951 26.9001 26.1795 26.455 26.5077 26.1268C26.8359 25.7986 27.281 25.6143 27.7451 25.6143H34.7451C35.2092 25.6143 35.6544 25.7986 35.9826 26.1268C36.3107 26.455 36.4951 26.9001 36.4951 27.3643V34.3643ZM41.3076 34.8018H39.5576C39.2095 34.8018 38.8757 34.6635 38.6295 34.4173C38.3834 34.1712 38.2451 33.8374 38.2451 33.4893C38.2451 33.1412 38.3834 32.8073 38.6295 32.5612C38.8757 32.315 39.2095 32.1768 39.5576 32.1768H41.3076C41.6557 32.1768 41.9896 32.315 42.2357 32.5612C42.4818 32.8073 42.6201 33.1412 42.6201 33.4893C42.6201 33.8374 42.4818 34.1712 42.2357 34.4173C41.9896 34.6635 41.6557 34.8018 41.3076 34.8018ZM41.3076 29.5518H39.5576C39.2095 29.5518 38.8757 29.4135 38.6295 29.1673C38.3834 28.9212 38.2451 28.5874 38.2451 28.2393C38.2451 27.8912 38.3834 27.5573 38.6295 27.3112C38.8757 27.065 39.2095 26.9268 39.5576 26.9268H41.3076C41.6557 26.9268 41.9896 27.065 42.2357 27.3112C42.4818 27.5573 42.6201 27.8912 42.6201 28.2393C42.6201 28.5874 42.4818 28.9212 42.2357 29.1673C41.9896 29.4135 41.6557 29.5518 41.3076 29.5518Z" fill="#302CFF"/>
<rect opacity="0.13" x="0.380859" width="61.7285" height="61.7285" fill="#302CFF"/>
</svg>
