<svg width="85" height="85" viewBox="0 0 85 85" fill="none" xmlns="http://www.w3.org/2000/svg">
<rect width="85" height="85" fill="#2477B5"/>
<path d="M19.457 25.6527C19.457 24.1748 19.976 22.9556 21.014 21.9951C22.0519 21.0345 23.4013 20.5542 25.0621 20.5542C26.6932 20.5542 28.0129 21.0271 29.0212 21.9729C30.0592 22.9483 30.5782 24.2192 30.5782 25.7857C30.5782 27.2044 30.074 28.3866 29.0657 29.3325C28.0277 30.3078 26.6635 30.7955 24.9731 30.7955H24.9286C23.2975 30.7955 21.9778 30.3078 20.9695 29.3325C19.9612 28.3571 19.457 27.1305 19.457 25.6527ZM20.0353 64.4456V34.83H29.9109V64.4456H20.0353ZM35.3825 64.4456H45.258V47.9087C45.258 46.8742 45.3767 46.0762 45.6139 45.5146C46.0291 44.5097 46.6593 43.6599 47.5045 42.9654C48.3497 42.2708 49.4099 41.9235 50.6851 41.9235C54.0067 41.9235 55.6674 44.155 55.6674 48.6181V64.4456H65.543V47.4654C65.543 43.091 64.505 39.7733 62.4291 37.5122C60.3531 35.2512 57.6099 34.1206 54.1994 34.1206C50.3738 34.1206 47.3933 35.761 45.258 39.0418V39.1304H45.2136L45.258 39.0418V34.83H35.3825C35.4418 35.7758 35.4714 38.7166 35.4714 43.6526C35.4714 48.5885 35.4418 55.5195 35.3825 64.4456Z" fill="white"/>
</svg>
