<svg width="63" height="62" viewBox="0 0 63 62" fill="none" xmlns="http://www.w3.org/2000/svg">
<circle cx="39.6907" cy="21.0245" r="6.54546" fill="white"/>
<circle cx="22.0162" cy="40.0359" r="6.54546" fill="white"/>
<path d="M53.6542 25.222C53.5787 24.9576 53.404 24.7327 53.1666 24.5942L50.9339 23.2968C51.271 21.802 51.271 20.2509 50.9339 18.756L53.1331 17.467C53.252 17.398 53.3562 17.3062 53.4396 17.1968C53.523 17.0875 53.584 16.9628 53.6192 16.8299C53.6544 16.697 53.663 16.5584 53.6446 16.4221C53.6262 16.2859 53.5811 16.1546 53.5119 16.0357L51.39 12.401C51.25 12.1649 51.0227 11.9934 50.7573 11.9233C50.4919 11.8533 50.2096 11.8903 49.9713 12.0264L47.659 13.3343C46.5835 12.1646 45.1667 11.3636 43.61 11.045V8.46912C43.61 8.19163 43.4998 7.92551 43.3035 7.7293C43.1073 7.53308 42.8412 7.42285 42.5637 7.42285H38.3786C38.1012 7.42285 37.835 7.53308 37.6388 7.7293C37.4426 7.92551 37.3324 8.19163 37.3324 8.46912V11.0429C35.7763 11.3598 34.3591 12.1577 33.2812 13.3238L30.9711 12.0264C30.7315 11.8912 30.4482 11.8557 30.1827 11.9278C29.9171 11.9999 29.6907 12.1736 29.5523 12.4115L27.4305 16.0378C27.3613 16.1567 27.3162 16.288 27.2978 16.4242C27.2794 16.5605 27.288 16.6991 27.3232 16.832C27.3583 16.9649 27.4194 17.0896 27.5028 17.1989C27.5862 17.3083 27.6903 17.4001 27.8092 17.4691L30.0252 18.756C29.6871 20.2508 29.6871 21.8021 30.0252 23.2968L27.7862 24.5858C27.667 24.6545 27.5624 24.7461 27.4786 24.8553C27.3948 24.9644 27.3333 25.0891 27.2978 25.222C27.2622 25.355 27.2532 25.4937 27.2713 25.6301C27.2894 25.7665 27.3343 25.8981 27.4033 26.0171L29.4958 29.654C29.6331 29.8918 29.8583 30.0661 30.123 30.1393C30.3876 30.2125 30.6704 30.1787 30.9104 30.0453L33.2791 28.7291C34.3582 29.8948 35.7759 30.6926 37.3324 31.0099V33.5796C37.3324 33.8571 37.4426 34.1232 37.6388 34.3194C37.835 34.5156 38.1012 34.6258 38.3786 34.6258H42.5637C42.8412 34.6258 43.1073 34.5156 43.3035 34.3194C43.4998 34.1232 43.61 33.8571 43.61 33.5796V31.0099C45.1661 30.6931 46.5832 29.8952 47.6611 28.7291L50.032 30.0453C50.272 30.1787 50.5548 30.2125 50.8194 30.1393C51.084 30.0661 51.3093 29.8918 51.4465 29.654L53.5391 26.0171C53.6097 25.8987 53.6562 25.7675 53.676 25.631C53.6957 25.4946 53.6883 25.3556 53.6542 25.222V25.222ZM40.4712 26.2557C39.4365 26.2557 38.4251 25.9489 37.5648 25.3741C36.7045 24.7992 36.034 23.9822 35.638 23.0263C35.2421 22.0704 35.1385 21.0185 35.3404 20.0038C35.5422 18.989 36.0404 18.0568 36.7721 17.3252C37.5037 16.5936 38.4358 16.0954 39.4506 15.8935C40.4654 15.6917 41.5172 15.7953 42.4731 16.1912C43.429 16.5872 44.2461 17.2577 44.8209 18.118C45.3957 18.9783 45.7025 19.9897 45.7025 21.0243C45.7025 22.4118 45.1514 23.7424 44.1703 24.7235C43.1892 25.7045 41.8586 26.2557 40.4712 26.2557Z" fill="#302CFF"/>
<path d="M34.7109 44.2619L32.4824 42.977C32.8195 41.4822 32.8195 39.9311 32.4824 38.4362L34.6984 37.1493C34.8173 37.0803 34.9214 36.9885 35.0048 36.8791C35.0882 36.7698 35.1493 36.6451 35.1844 36.5122C35.2196 36.3792 35.2283 36.2407 35.2098 36.1044C35.1914 35.9682 35.1463 35.8368 35.0771 35.718L32.9553 32.0812C32.817 31.8434 32.5905 31.6696 32.3249 31.5975C32.0594 31.5255 31.7762 31.5609 31.5366 31.6962L29.2348 33.004C28.1505 31.8333 26.7237 31.0356 25.1585 30.7252V28.1493C25.1585 27.8718 25.0483 27.6057 24.8521 27.4095C24.6558 27.2133 24.3897 27.103 24.1122 27.103H19.9272C19.6497 27.103 19.3835 27.2133 19.1873 27.4095C18.9911 27.6057 18.8809 27.8718 18.8809 28.1493V30.7231C17.3248 31.04 15.9077 31.8379 14.8297 33.004L12.5196 31.7066C12.28 31.5714 11.9967 31.5359 11.7312 31.608C11.4656 31.6801 11.2392 31.8538 11.1008 32.0917L8.979 35.718C8.9098 35.8368 8.86471 35.9682 8.8463 36.1044C8.82788 36.2407 8.83651 36.3792 8.87169 36.5122C8.90686 36.6451 8.9679 36.7698 9.0513 36.8791C9.1347 36.9885 9.23884 37.0803 9.35775 37.1493L11.5737 38.4362C11.2356 39.9309 11.2356 41.4823 11.5737 42.977L9.32845 44.2619C9.20919 44.3306 9.10466 44.4221 9.02084 44.5313C8.93702 44.6404 8.87556 44.7651 8.83999 44.898C8.80442 45.031 8.79543 45.1697 8.81354 45.3061C8.83165 45.4425 8.8765 45.5741 8.94552 45.6932L11.0381 49.33C11.1753 49.5678 11.4006 49.7421 11.6652 49.8153C11.9298 49.8885 12.2126 49.8547 12.4526 49.7213L14.8214 48.4051C15.9015 49.5735 17.3216 50.3728 18.8809 50.6901V53.2598C18.8809 53.5373 18.9911 53.8034 19.1873 53.9996C19.3835 54.1958 19.6497 54.306 19.9272 54.306H24.1122C24.3897 54.306 24.6558 54.1958 24.8521 53.9996C25.0483 53.8034 25.1585 53.5373 25.1585 53.2598V50.6901C26.7146 50.3733 28.1317 49.5754 29.2097 48.4093L31.5805 49.7255C31.8205 49.8589 32.1033 49.8927 32.3679 49.8194C32.6325 49.7462 32.8578 49.572 32.9951 49.3342L35.0876 45.6973C35.1566 45.5783 35.2015 45.4467 35.2196 45.3103C35.2377 45.1739 35.2287 45.0352 35.1931 44.9022C35.1576 44.7693 35.0961 44.6446 35.0123 44.5355C34.9285 44.4263 34.8239 44.3347 34.7047 44.266L34.7109 44.2619ZM22.0197 45.9359C20.985 45.9359 19.9736 45.6291 19.1133 45.0542C18.253 44.4794 17.5825 43.6624 17.1866 42.7065C16.7906 41.7506 16.687 40.6987 16.8889 39.684C17.0907 38.6692 17.589 37.737 18.3206 37.0054C19.0522 36.2738 19.9843 35.7756 20.9991 35.5737C22.0139 35.3719 23.0657 35.4755 24.0216 35.8714C24.9775 36.2674 25.7946 36.9379 26.3694 37.7982C26.9442 38.6584 27.251 39.6699 27.251 40.7045C27.251 42.092 26.6999 43.4226 25.7188 44.4037C24.7377 45.3847 23.4071 45.9359 22.0197 45.9359V45.9359Z" fill="#302CFF"/>
<rect opacity="0.13" x="0.380859" width="61.7285" height="61.7285" fill="#302CFF"/>
</svg>
