<svg width="184" height="39" viewBox="0 0 184 39" fill="none" xmlns="http://www.w3.org/2000/svg">
<g filter="url(#filter0_d)">
<path d="M29.82 13.305C26.0862 13.305 23.0555 10.2858 23.0555 6.5751C23.0555 6.0911 23.1131 5.63014 23.2053 5.16919H14.2166C10.7364 5.16919 7.91309 7.98102 7.91309 11.4382V23.0197C7.91309 26.4884 10.7364 29.2887 14.2166 29.2887H25.8558C29.3475 29.2887 32.1593 26.4768 32.1593 23.0197V12.8787C31.4448 13.1437 30.6497 13.305 29.82 13.305Z" fill="#302CFF"/>
<path d="M32.1701 23.0197V12.8787C31.4441 13.1437 30.6489 13.305 29.8307 13.305C26.097 13.305 23.0662 10.2858 23.0662 6.5751C23.0662 6.0911 23.1238 5.63014 23.216 5.16919H14.2274C10.7702 5.16919 7.96992 7.93492 7.92383 11.369C16.221 14.7916 24.7487 18.9517 32.124 23.8148C32.147 23.5498 32.1701 23.2847 32.1701 23.0197Z" fill="#302CFF"/>
</g>
<path d="M30.3381 10.9802C33.0462 10.9802 35.2357 8.80214 35.2357 6.10556C35.2357 3.42049 33.0462 1.23096 30.3381 1.23096C27.63 1.23096 25.4404 3.40897 25.4404 6.10556C25.4404 8.79062 27.63 10.9802 30.3381 10.9802Z" fill="#070721"/>
<path d="M60.0109 17.1812C59.8181 18.0004 59.4929 18.7955 59.0351 19.5665C58.5773 20.3135 58.011 20.9881 57.3364 21.5905C56.6617 22.1688 55.8907 22.6386 55.0233 23C54.1559 23.3373 53.2283 23.506 52.2404 23.506C51.1079 23.506 50.0357 23.2892 49.0237 22.8555C48.0359 22.3977 47.1564 21.7832 46.3854 21.0122C45.6385 20.2412 45.0361 19.3497 44.5783 18.3377C44.1446 17.3016 43.9277 16.1933 43.9277 15.0126C43.9277 13.832 44.1446 12.7357 44.5783 11.7237C45.0361 10.6877 45.6385 9.78411 46.3854 9.01308C47.1564 8.24205 48.0359 7.63969 49.0237 7.20598C50.0357 6.74819 51.1079 6.51929 52.2404 6.51929C53.2283 6.51929 54.1559 6.7 55.0233 7.06142C55.8907 7.39874 56.6617 7.86859 57.3364 8.47095C58.011 9.04922 58.5773 9.72387 59.0351 10.4949C59.4929 11.2418 59.8181 12.0249 60.0109 12.8441H55.8546C55.6618 12.4104 55.3968 12.0249 55.0595 11.6876C54.7703 11.3985 54.3969 11.1334 53.9391 10.8925C53.4813 10.6274 52.915 10.4949 52.2404 10.4949C51.0597 10.4949 50.0719 10.9045 49.2767 11.7237C48.4816 12.5429 48.0841 13.6393 48.0841 15.0126C48.0841 16.386 48.4816 17.4823 49.2767 18.3016C50.0719 19.1208 51.0597 19.5304 52.2404 19.5304C52.915 19.5304 53.4813 19.4099 53.9391 19.169C54.3969 18.928 54.7703 18.663 55.0595 18.3738C55.3968 18.0365 55.6618 17.639 55.8546 17.1812H60.0109Z" fill="#1D1C43"/>
<path d="M66.8779 15.0126C66.8779 16.386 67.2754 17.4823 68.0706 18.3016C68.8657 19.1208 69.8536 19.5304 71.0342 19.5304C72.2148 19.5304 73.2027 19.1208 73.9978 18.3016C74.793 17.4823 75.1905 16.386 75.1905 15.0126C75.1905 13.6393 74.793 12.5429 73.9978 11.7237C73.2027 10.9045 72.2148 10.4949 71.0342 10.4949C69.8536 10.4949 68.8657 10.9045 68.0706 11.7237C67.2754 12.5429 66.8779 13.6393 66.8779 15.0126ZM79.3468 15.0126C79.3468 16.1933 79.1179 17.3016 78.6601 18.3377C78.2264 19.3497 77.6241 20.2412 76.853 21.0122C76.1061 21.7832 75.2267 22.3977 74.2147 22.8555C73.2268 23.2892 72.1666 23.506 71.0342 23.506C69.9017 23.506 68.8295 23.2892 67.8176 22.8555C66.8297 22.3977 65.9502 21.7832 65.1792 21.0122C64.4323 20.2412 63.8299 19.3497 63.3721 18.3377C62.9384 17.3016 62.7215 16.1933 62.7215 15.0126C62.7215 13.832 62.9384 12.7357 63.3721 11.7237C63.8299 10.6877 64.4323 9.78411 65.1792 9.01308C65.9502 8.24205 66.8297 7.63969 67.8176 7.20598C68.8295 6.74819 69.9017 6.51929 71.0342 6.51929C72.1666 6.51929 73.2268 6.74819 74.2147 7.20598C75.2267 7.63969 76.1061 8.24205 76.853 9.01308C77.6241 9.78411 78.2264 10.6877 78.6601 11.7237C79.1179 12.7357 79.3468 13.832 79.3468 15.0126Z" fill="#1D1C43"/>
<path d="M90.8953 6.51929C91.7386 6.51929 92.4615 6.63976 93.0638 6.88071C93.6662 7.09756 94.1601 7.33851 94.5457 7.60355C94.9794 7.91678 95.3287 8.2782 95.5938 8.6878C95.9793 8.2782 96.425 7.91678 96.931 7.60355C97.3647 7.33851 97.8828 7.09756 98.4851 6.88071C99.0875 6.63976 99.7501 6.51929 100.473 6.51929C102.28 6.51929 103.726 7.09756 104.81 8.2541C105.894 9.41064 106.436 11.1214 106.436 13.3863V23.3253H102.28V13.7477C102.28 12.7357 102.003 11.9406 101.449 11.3623C100.919 10.784 100.292 10.4949 99.5694 10.4949C98.8466 10.4949 98.208 10.784 97.6539 11.3623C97.1238 11.9406 96.8587 12.7357 96.8587 13.7477V23.3253H92.7024V13.7477C92.7024 12.7357 92.4253 11.9406 91.8712 11.3623C91.3411 10.784 90.7146 10.4949 89.9918 10.4949C89.2689 10.4949 88.6304 10.784 88.0763 11.3623C87.5462 11.9406 87.2811 12.7357 87.2811 13.7477V23.3253H83.1248V6.7H86.1969L86.9197 8.32638C87.257 7.98906 87.6305 7.68788 88.0401 7.42284C88.3774 7.20598 88.787 7.00118 89.2689 6.80842C89.7508 6.61567 90.293 6.51929 90.8953 6.51929Z" fill="#1D1C43"/>
<path d="M119.447 6.51929C120.484 6.51929 121.471 6.73614 122.411 7.16984C123.351 7.57945 124.17 8.16977 124.869 8.9408C125.592 9.68773 126.158 10.5792 126.567 11.6153C127.001 12.6514 127.218 13.7838 127.218 15.0126C127.218 16.2415 127.001 17.3739 126.567 18.41C126.158 19.4461 125.592 20.3496 124.869 21.1206C124.17 21.8676 123.351 22.4579 122.411 22.8916C121.471 23.3012 120.484 23.506 119.447 23.506C118.749 23.506 118.134 23.4217 117.604 23.253C117.098 23.0843 116.652 22.9036 116.267 22.7109C115.833 22.4699 115.448 22.1928 115.11 21.8796V29.108H110.954V6.7H114.026L114.749 8.32638C115.11 7.98906 115.532 7.68788 116.014 7.42284C116.424 7.20598 116.918 7.00118 117.496 6.80842C118.074 6.61567 118.725 6.51929 119.447 6.51929ZM114.749 15.0126C114.749 16.386 115.147 17.4823 115.942 18.3016C116.737 19.1208 117.725 19.5304 118.905 19.5304C120.086 19.5304 121.074 19.1208 121.869 18.3016C122.664 17.4823 123.062 16.386 123.062 15.0126C123.062 13.6393 122.664 12.5429 121.869 11.7237C121.074 10.9045 120.086 10.4949 118.905 10.4949C117.725 10.4949 116.737 10.9045 115.942 11.7237C115.147 12.5429 114.749 13.6393 114.749 15.0126Z" fill="#1D1C43"/>
<path d="M137.885 6.51929C138.825 6.51929 139.693 6.68795 140.488 7.02527C141.283 7.3385 141.97 7.78426 142.548 8.36253C143.126 8.9408 143.572 9.6275 143.885 10.4226C144.222 11.2177 144.391 12.0851 144.391 13.0248V23.3253H141.319L140.596 21.6989C140.211 22.0362 139.789 22.3374 139.331 22.6025C138.922 22.8434 138.428 23.0603 137.849 23.253C137.271 23.4217 136.621 23.506 135.898 23.506C134.091 23.506 132.705 23.0723 131.741 22.2049C130.778 21.3134 130.296 20.1809 130.296 18.8076C130.296 17.9883 130.452 17.2414 130.766 16.5668C131.103 15.868 131.657 15.2777 132.428 14.7958C133.199 14.2898 134.211 13.9043 135.464 13.6393C136.741 13.3501 138.331 13.2055 140.235 13.2055C140.235 12.29 139.982 11.5792 139.476 11.0732C138.994 10.5672 138.343 10.3142 137.524 10.3142C136.97 10.3142 136.524 10.4106 136.187 10.6033C135.874 10.7961 135.621 11.0009 135.428 11.2177C135.211 11.4828 135.066 11.784 134.994 12.1213H130.838C130.934 11.3503 131.151 10.6274 131.488 9.95277C131.85 9.27812 132.332 8.6878 132.934 8.18182C133.536 7.67583 134.247 7.27827 135.066 6.98913C135.91 6.6759 136.849 6.51929 137.885 6.51929ZM136.621 20.2532C137.705 20.2532 138.572 19.94 139.223 19.3135C139.897 18.663 140.235 17.8317 140.235 16.8197V16.0969C139.006 16.0969 138.018 16.1571 137.271 16.2776C136.524 16.374 135.934 16.5306 135.5 16.7475C135.091 16.9402 134.813 17.1812 134.669 17.4703C134.524 17.7594 134.452 18.0847 134.452 18.4461C134.452 18.9039 134.657 19.3256 135.066 19.7111C135.476 20.0725 135.994 20.2532 136.621 20.2532Z" fill="#1D1C43"/>
<path d="M157.388 6.51929C158.376 6.51929 159.279 6.68795 160.099 7.02527C160.918 7.3385 161.617 7.80835 162.195 8.43481C162.797 9.03718 163.255 9.77206 163.568 10.6395C163.906 11.5069 164.074 12.4827 164.074 13.567V23.3253H159.918V14.1091C159.918 13.0248 159.593 12.1574 158.942 11.5069C158.316 10.8322 157.496 10.4949 156.484 10.4949C155.473 10.4949 154.641 10.8322 153.991 11.5069C153.364 12.1574 153.051 13.0248 153.051 14.1091V23.3253H148.895V6.7H151.967L152.69 8.32638C153.099 7.98906 153.545 7.68788 154.027 7.42284C154.436 7.20598 154.918 7.00118 155.473 6.80842C156.051 6.61567 156.689 6.51929 157.388 6.51929Z" fill="#1D1C43"/>
<path d="M166.799 6.7H171.136L175.292 17.5426L179.087 6.7H183.424C182.244 9.73592 181.171 12.4827 180.208 14.9404C179.798 16.0005 179.388 17.0366 178.979 18.0486C178.593 19.0605 178.244 19.9882 177.931 20.8315C177.618 21.6507 177.352 22.3374 177.136 22.8916C176.919 23.4458 176.786 23.771 176.738 23.8674C176.328 24.8553 175.919 25.6866 175.509 26.3612C175.124 27.06 174.702 27.6262 174.244 28.0599C173.786 28.4936 173.293 28.8068 172.762 28.9996C172.232 29.1923 171.63 29.2887 170.955 29.2887C170.763 29.2887 170.57 29.2767 170.377 29.2526C170.208 29.2526 170.064 29.2405 169.943 29.2164C169.775 29.1923 169.63 29.1562 169.51 29.108V25.6745C170.425 25.6745 171.124 25.4697 171.606 25.0601C172.112 24.6505 172.497 24.1325 172.762 23.506L173.124 22.6025L166.799 6.7Z" fill="#1D1C43"/>
<defs>
<filter id="filter0_d" x="0.913086" y="0.169189" width="38.257" height="38.1195" filterUnits="userSpaceOnUse" color-interpolation-filters="sRGB">
<feFlood flood-opacity="0" result="BackgroundImageFix"/>
<feColorMatrix in="SourceAlpha" type="matrix" values="0 0 0 0 0 0 0 0 0 0 0 0 0 0 0 0 0 0 127 0"/>
<feOffset dy="2"/>
<feGaussianBlur stdDeviation="3.5"/>
<feColorMatrix type="matrix" values="0 0 0 0 0.187417 0 0 0 0 0.170833 0 0 0 0 1 0 0 0 0.19 0"/>
<feBlend mode="normal" in2="BackgroundImageFix" result="effect1_dropShadow"/>
<feBlend mode="normal" in="SourceGraphic" in2="effect1_dropShadow" result="shape"/>
</filter>
</defs>
</svg>
