<svg width="185" height="46" viewBox="0 0 185 46" fill="none" xmlns="http://www.w3.org/2000/svg">
<path d="M45.501 18.6649C45.501 16.7713 45.9238 15.0799 46.7695 13.5908C47.6336 12.0833 48.801 10.9159 50.2717 10.0886C51.7608 9.24291 53.4246 8.82007 55.263 8.82007C57.414 8.82007 59.2984 9.3716 60.9162 10.4747C62.534 11.5777 63.6647 13.1036 64.3081 15.0524H59.8683C59.4271 14.1331 58.802 13.4437 57.9931 12.9841C57.2026 12.5245 56.2834 12.2947 55.2355 12.2947C54.114 12.2947 53.1121 12.5613 52.2296 13.0944C51.3656 13.6092 50.6854 14.3446 50.189 15.3005C49.711 16.2565 49.472 17.378 49.472 18.6649C49.472 19.9334 49.711 21.0548 50.189 22.0292C50.6854 22.9852 51.3656 23.7298 52.2296 24.2629C53.1121 24.7777 54.114 25.035 55.2355 25.035C56.2834 25.035 57.2026 24.8052 57.9931 24.3456C58.802 23.8676 59.4271 23.169 59.8683 22.2498H64.3081C63.6647 24.2169 62.534 25.752 60.9162 26.8551C59.3168 27.9398 57.4324 28.4821 55.263 28.4821C53.4246 28.4821 51.7608 28.0685 50.2717 27.2412C48.801 26.3955 47.6336 25.2281 46.7695 23.7389C45.9238 22.2498 45.501 20.5585 45.501 18.6649Z" fill="#1D1C43"/>
<path d="M74.3895 28.5648C72.9187 28.5648 71.5951 28.2431 70.4185 27.5996C69.2419 26.9378 68.3135 26.0094 67.6332 24.8144C66.9714 23.6194 66.6405 22.2406 66.6405 20.678C66.6405 19.1153 66.9806 17.7365 67.6608 16.5415C68.3594 15.3465 69.3062 14.4273 70.5012 13.7838C71.6962 13.122 73.029 12.7911 74.4998 12.7911C75.9705 12.7911 77.3034 13.122 78.4984 13.7838C79.6934 14.4273 80.631 15.3465 81.3112 16.5415C82.0098 17.7365 82.3591 19.1153 82.3591 20.678C82.3591 22.2406 82.0006 23.6194 81.2836 24.8144C80.585 26.0094 79.629 26.9378 78.4156 27.5996C77.2207 28.2431 75.8786 28.5648 74.3895 28.5648ZM74.3895 25.2005C75.0881 25.2005 75.7407 25.035 76.3474 24.7041C76.9725 24.3548 77.4689 23.8401 77.8365 23.1598C78.2042 22.4796 78.3881 21.6523 78.3881 20.678C78.3881 19.2256 78.002 18.1133 77.2299 17.3412C76.4761 16.5507 75.5477 16.1554 74.4446 16.1554C73.3416 16.1554 72.4132 16.5507 71.6594 17.3412C70.924 18.1133 70.5564 19.2256 70.5564 20.678C70.5564 22.1303 70.9148 23.2518 71.6318 24.0423C72.3672 24.8144 73.2864 25.2005 74.3895 25.2005Z" fill="#1D1C43"/>
<path d="M104.164 12.8187C106.039 12.8187 107.546 13.3978 108.686 14.556C109.844 15.6958 110.424 17.2952 110.424 19.3543V28.3166H106.563V19.8782C106.563 18.6833 106.259 17.7732 105.653 17.1482C105.046 16.5047 104.219 16.183 103.171 16.183C102.123 16.183 101.287 16.5047 100.661 17.1482C100.055 17.7732 99.7514 18.6833 99.7514 19.8782V28.3166H95.8907V19.8782C95.8907 18.6833 95.5874 17.7732 94.9807 17.1482C94.374 16.5047 93.5467 16.183 92.4988 16.183C91.4325 16.183 90.5868 16.5047 89.9618 17.1482C89.3551 17.7732 89.0518 18.6833 89.0518 19.8782V28.3166H85.1911V13.0393H89.0518V14.8869C89.5481 14.2434 90.1824 13.7379 90.9545 13.3702C91.7451 13.0025 92.6091 12.8187 93.5467 12.8187C94.7417 12.8187 95.808 13.076 96.7456 13.5908C97.6832 14.0872 98.4094 14.8042 98.9241 15.7418C99.4205 14.8593 100.137 14.1515 101.075 13.6184C102.031 13.0852 103.061 12.8187 104.164 12.8187Z" fill="#1D1C43"/>
<path d="M117.948 15.2454C118.444 14.5468 119.124 13.9677 119.988 13.5081C120.871 13.0301 121.873 12.7911 122.994 12.7911C124.3 12.7911 125.476 13.1128 126.524 13.7563C127.59 14.3997 128.427 15.3189 129.034 16.5139C129.659 17.6905 129.971 19.0601 129.971 20.6228C129.971 22.1855 129.659 23.5735 129.034 24.7868C128.427 25.9818 127.59 26.9102 126.524 27.5721C125.476 28.2339 124.3 28.5648 122.994 28.5648C121.873 28.5648 120.88 28.335 120.016 27.8754C119.17 27.4158 118.481 26.8367 117.948 26.1381V35.5968H114.087V13.0393H117.948V15.2454ZM126.028 20.6228C126.028 19.7036 125.835 18.9131 125.449 18.2512C125.081 17.571 124.585 17.0562 123.959 16.7069C123.353 16.3576 122.691 16.183 121.974 16.183C121.275 16.183 120.614 16.3668 119.988 16.7345C119.382 17.0838 118.885 17.5986 118.499 18.2788C118.132 18.959 117.948 19.7587 117.948 20.678C117.948 21.5972 118.132 22.3969 118.499 23.0771C118.885 23.7573 119.382 24.2813 119.988 24.649C120.614 24.9983 121.275 25.1729 121.974 25.1729C122.691 25.1729 123.353 24.9891 123.959 24.6214C124.585 24.2537 125.081 23.7298 125.449 23.0495C125.835 22.3693 126.028 21.5604 126.028 20.6228Z" fill="#1D1C43"/>
<path d="M131.784 20.6228C131.784 19.0785 132.087 17.7089 132.694 16.5139C133.319 15.3189 134.155 14.3997 135.203 13.7563C136.27 13.1128 137.455 12.7911 138.761 12.7911C139.901 12.7911 140.893 13.0209 141.739 13.4805C142.603 13.9401 143.292 14.5192 143.807 15.2178V13.0393H147.695V28.3166H143.807V26.0829C143.311 26.7999 142.621 27.3974 141.739 27.8754C140.875 28.335 139.873 28.5648 138.733 28.5648C137.446 28.5648 136.27 28.2339 135.203 27.5721C134.155 26.9102 133.319 25.9818 132.694 24.7868C132.087 23.5735 131.784 22.1855 131.784 20.6228ZM143.807 20.678C143.807 19.7404 143.623 18.9406 143.256 18.2788C142.888 17.5986 142.392 17.0838 141.767 16.7345C141.141 16.3668 140.47 16.183 139.753 16.183C139.036 16.183 138.375 16.3576 137.768 16.7069C137.161 17.0562 136.665 17.571 136.279 18.2512C135.911 18.9131 135.727 19.7036 135.727 20.6228C135.727 21.542 135.911 22.3509 136.279 23.0495C136.665 23.7298 137.161 24.2537 137.768 24.6214C138.393 24.9891 139.055 25.1729 139.753 25.1729C140.47 25.1729 141.141 24.9983 141.767 24.649C142.392 24.2813 142.888 23.7665 143.256 23.1047C143.623 22.4245 143.807 21.6156 143.807 20.678Z" fill="#1D1C43"/>
<path d="M159.932 12.8187C161.752 12.8187 163.223 13.3978 164.344 14.556C165.466 15.6958 166.027 17.2952 166.027 19.3543V28.3166H162.166V19.8782C162.166 18.6649 161.862 17.7365 161.256 17.093C160.649 16.4312 159.822 16.1003 158.774 16.1003C157.708 16.1003 156.862 16.4312 156.237 17.093C155.63 17.7365 155.327 18.6649 155.327 19.8782V28.3166H151.466V13.0393H155.327V14.942C155.842 14.2802 156.494 13.7654 157.285 13.3978C158.094 13.0117 158.976 12.8187 159.932 12.8187Z" fill="#1D1C43"/>
<path d="M184.313 13.0393L174.855 35.5417H170.746L174.055 27.9306L167.933 13.0393H172.262L176.206 23.7114L180.204 13.0393H184.313Z" fill="#1D1C43"/>
<g filter="url(#filter0_d)">
<path d="M10.2287 36.6188H7.47656V17.3467H17.8001V29.0475C17.8001 33.2284 14.4121 36.6188 10.2287 36.6188Z" fill="#302CFF"/>
<path d="M31.5653 17.3467C31.5653 10.696 26.174 5.30225 19.5208 5.30225C18.9365 5.30225 18.362 5.34644 17.7998 5.42745V17.3467H31.5653V17.3467Z" fill="#302CFF"/>
</g>
<path d="M27.6649 30.0433C30.3051 28.9661 31.572 25.9525 30.4948 23.3124C29.4175 20.6722 26.4039 19.4053 23.7638 20.4825C21.1237 21.5598 19.8567 24.5734 20.934 27.2135C22.0112 29.8536 25.0248 31.1206 27.6649 30.0433Z" fill="#070721"/>
<defs>
<filter id="filter0_d" x="0.476562" y="0.302246" width="38.0887" height="45.3166" filterUnits="userSpaceOnUse" color-interpolation-filters="sRGB">
<feFlood flood-opacity="0" result="BackgroundImageFix"/>
<feColorMatrix in="SourceAlpha" type="matrix" values="0 0 0 0 0 0 0 0 0 0 0 0 0 0 0 0 0 0 127 0"/>
<feOffset dy="2"/>
<feGaussianBlur stdDeviation="3.5"/>
<feColorMatrix type="matrix" values="0 0 0 0 0.187417 0 0 0 0 0.170833 0 0 0 0 1 0 0 0 0.1 0"/>
<feBlend mode="normal" in2="BackgroundImageFix" result="effect1_dropShadow"/>
<feBlend mode="normal" in="SourceGraphic" in2="effect1_dropShadow" result="shape"/>
</filter>
</defs>
</svg>
