<svg width="38" height="38" viewBox="0 0 38 38" fill="none" xmlns="http://www.w3.org/2000/svg">
<rect width="38" height="38" fill="#0A66C2"/>
<path d="M10 12.8957C10 12.3462 10.193 11.8929 10.5789 11.5358C10.9649 11.1786 11.4666 11 12.0841 11C12.6906 11 13.1813 11.1758 13.5562 11.5275C13.9421 11.8902 14.1351 12.3627 14.1351 12.9452C14.1351 13.4727 13.9476 13.9123 13.5727 14.264C13.1868 14.6266 12.6795 14.808 12.051 14.808H12.0345C11.428 14.808 10.9373 14.6266 10.5624 14.264C10.1875 13.9013 10 13.4452 10 12.8957ZM10.215 27.3199V16.3081H13.887V27.3199H10.215ZM15.9215 27.3199H19.5934V21.1711C19.5934 20.7864 19.6375 20.4897 19.7258 20.2809C19.8801 19.9072 20.1145 19.5913 20.4287 19.333C20.743 19.0748 21.1372 18.9456 21.6114 18.9456C22.8464 18.9456 23.4639 19.7754 23.4639 21.4348V27.3199H27.1359V21.0062C27.1359 19.3797 26.7499 18.1461 25.978 17.3054C25.2061 16.4647 24.1862 16.0443 22.9181 16.0443C21.4956 16.0443 20.3874 16.6543 19.5934 17.8741V17.9071H19.5769L19.5934 17.8741V16.3081H15.9215C15.9435 16.6597 15.9545 17.7532 15.9545 19.5885C15.9545 21.4238 15.9435 24.0009 15.9215 27.3199Z" fill="white"/>
</svg>
