<svg width="15" height="18" viewBox="0 0 15 18" fill="none" xmlns="http://www.w3.org/2000/svg">
<path fill-rule="evenodd" clip-rule="evenodd" d="M7.53073 17.9207C8.89448 17.142 14.4652 13.5812 14.4652 7.23259C14.4652 5.31439 13.7032 3.47475 12.3468 2.11838C10.9904 0.762002 9.15079 0 7.23259 0C5.31439 0 3.47475 0.762002 2.11838 2.11838C0.762003 3.47475 0 5.31439 0 7.23259C0 13.5796 5.5699 17.1412 6.93364 17.9207C7.02457 17.9727 7.12747 18 7.23219 18C7.3369 18 7.4398 17.9727 7.53073 17.9207ZM10.8488 7.2325C10.8488 9.22973 9.22973 10.8488 7.2325 10.8488C5.23528 10.8488 3.61621 9.22973 3.61621 7.2325C3.61621 5.23528 5.23528 3.61621 7.2325 3.61621C9.22973 3.61621 10.8488 5.23528 10.8488 7.2325Z" fill="#302CFF"/>
</svg>
