<svg width="62" height="62" viewBox="0 0 62 62" fill="none" xmlns="http://www.w3.org/2000/svg">
<rect x="26.218" y="30.4211" width="18.7581" height="10.7709" fill="#302CFF"/>
<path d="M53.214 36.8914C53.2135 34.8312 52.4064 32.853 50.9654 31.3806C49.5245 29.9081 47.5643 29.0583 45.5046 29.0133C45.2922 29.009 45.0878 28.9319 44.9255 28.7949C44.7632 28.6579 44.6528 28.4693 44.6129 28.2607C44.0852 25.471 42.7148 22.9101 40.6865 20.9234C38.6581 18.9367 36.0694 17.6198 33.2693 17.15C30.4692 16.6803 27.5924 17.0805 25.0268 18.2965C22.4612 19.5126 20.3302 21.4861 18.921 23.9509C18.8449 24.0829 18.7374 24.194 18.6081 24.2745C18.4787 24.355 18.3316 24.4024 18.1796 24.4125C15.6109 24.5972 13.2077 25.7481 11.4536 27.6336C9.69948 29.5191 8.72482 31.9991 8.72583 34.5743C8.72583 43.4719 17.7829 44.7491 17.9942 44.7695H44.8966C47.1901 44.752 49.4003 43.9075 51.1212 42.3912C51.8269 41.6659 52.3766 40.8037 52.7366 39.8578C53.0965 38.912 53.259 37.9024 53.214 36.8914V36.8914ZM41.4061 36.8506L39.9732 39.2363C39.8502 39.4496 39.6859 39.6363 39.49 39.7854C39.294 39.9345 39.0703 40.0431 38.8319 40.1049C38.5935 40.1666 38.3453 40.1802 38.1016 40.1449C37.8579 40.1095 37.6236 40.026 37.4126 39.8992C37.2015 39.7724 37.0178 39.6047 36.8723 39.4061C36.7267 39.2075 36.6222 38.9819 36.5648 38.7424C36.5074 38.503 36.4982 38.2545 36.5379 38.0114C36.5776 37.7684 36.6654 37.5358 36.796 37.327L38.227 34.9432C38.3523 34.7344 38.5174 34.5524 38.713 34.4075C38.9086 34.2626 39.1308 34.1576 39.367 34.0986C39.6031 34.0395 39.8486 34.0276 40.0894 34.0634C40.3302 34.0992 40.5615 34.1821 40.7703 34.3074C40.979 34.4326 41.161 34.5978 41.306 34.7933C41.4509 34.9889 41.5559 35.2112 41.6149 35.4473C41.6739 35.6835 41.6859 35.929 41.6501 36.1697C41.6142 36.4105 41.5313 36.6419 41.4061 36.8506V36.8506ZM28.5008 37.2529L32.2082 31.6918C32.3433 31.4893 32.5169 31.3154 32.7193 31.18C32.9216 31.0445 33.1486 30.9503 33.3873 30.9026C33.6261 30.855 33.8719 30.8548 34.1107 30.9021C34.3495 30.9494 34.5767 31.0433 34.7792 31.1784C34.9817 31.3135 35.1557 31.4872 35.2911 31.6895C35.4265 31.8918 35.5207 32.1188 35.5684 32.3576C35.6161 32.5963 35.6163 32.8421 35.569 33.0809C35.5217 33.3197 35.4278 33.5469 35.2927 33.7494L31.5853 39.3104C31.3125 39.7195 30.8883 40.0034 30.4061 40.0997C29.924 40.1959 29.4233 40.0968 29.0143 39.8239C28.6053 39.5511 28.3214 39.1269 28.2251 38.6447C28.1288 38.1626 28.228 37.6619 28.5008 37.2529V37.2529Z" fill="#302CFF"/>
<rect opacity="0.13" x="0.109375" width="61.7285" height="61.7285" fill="#302CFF"/>
</svg>
