<svg width="105" height="105" viewBox="0 0 105 105" fill="none" xmlns="http://www.w3.org/2000/svg">
<rect opacity="0.1" width="105" height="105" fill="#302CFF"/>
<path opacity="0.32" d="M23.4707 50.116C23.6159 56.9063 24.0225 68.5206 24.0806 69.8014C24.2868 72.5402 25.3353 75.308 26.9675 77.2597C29.2387 79.9985 32.0355 81.2212 35.936 81.2212C41.3264 81.2502 47.2687 81.2502 53.0395 81.2502C58.8336 81.2502 64.4564 81.2502 69.205 81.2212C73.0503 81.2212 75.9343 79.9665 78.1764 77.2597C79.8086 75.308 80.8571 72.5111 81.0052 69.8014C81.0633 68.7239 81.3537 56.1163 81.528 50.116H23.4707Z" fill="#302CFF"/>
<path d="M50.3213 62.6209V66.379C50.3213 67.5814 51.2971 68.5573 52.4995 68.5573C53.7019 68.5573 54.6778 67.5814 54.6778 66.379V62.6209C54.6778 61.4185 53.7019 60.4426 52.4995 60.4426C51.2971 60.4426 50.3213 61.4185 50.3213 62.6209" fill="#302CFF"/>
<path fill-rule="evenodd" clip-rule="evenodd" d="M47.3195 60.2166C47.0291 61.2709 46.0155 61.9447 44.9176 61.7994C37.5087 60.7655 30.428 58.1371 24.4509 54.1901C23.8381 53.7893 23.4722 53.1039 23.4722 52.372V42.3057C23.4722 36.2066 28.4444 31.246 34.5579 31.246H40.2707C40.8167 27.029 44.389 23.75 48.7513 23.75H56.2503C60.6096 23.75 64.1849 27.029 64.7309 31.246H70.4727C76.5689 31.246 81.5294 36.2066 81.5294 42.3057V52.372C81.5294 53.1039 81.1606 53.7864 80.5536 54.1901C74.5649 58.1545 67.4551 60.7945 59.9968 61.8256C59.8952 61.8401 59.7964 61.8459 59.6977 61.8459C58.7131 61.8459 57.8331 61.1808 57.5863 60.205C56.9996 57.8931 54.8998 56.2754 52.4863 56.2754C50.0408 56.2754 47.9643 57.8583 47.3195 60.2166ZM56.2488 28.1066H48.7498C46.7952 28.1066 45.163 29.4426 44.6751 31.2461H60.3206C59.8327 29.4426 58.2005 28.1066 56.2488 28.1066Z" fill="#302CFF"/>
</svg>
