<svg width="92" height="92" viewBox="0 0 92 92" fill="none" xmlns="http://www.w3.org/2000/svg">
<rect width="92" height="92" fill="#302CFF"/>
<path opacity="0.4" d="M73 56.5863C73 64.2588 66.84 70.4738 59.1675 70.5013H59.14H31.8875C24.2425 70.5013 18 64.3138 18 56.6413V56.6138C18 56.6138 18.0165 44.4423 18.0385 38.3208C18.0413 37.1713 19.3613 36.5278 20.2605 37.2428C26.7945 42.4265 38.4793 51.8783 38.625 52.002C40.5775 53.5668 43.0525 54.4495 45.5825 54.4495C48.1125 54.4495 50.5875 53.5668 52.54 51.9718C52.6858 51.8755 64.1093 42.707 70.7423 37.438C71.6443 36.7203 72.9697 37.3638 72.9725 38.5105C73 44.5853 73 56.5863 73 56.5863" fill="white"/>
<path d="M71.5592 28.3535C69.1777 23.8655 64.4917 21 59.3327 21H31.8877C26.7287 21 22.0427 23.8655 19.6612 28.3535C19.1277 29.3572 19.3807 30.6085 20.2689 31.318L40.6877 47.6502C42.1177 48.8052 43.8502 49.38 45.5827 49.38C45.5937 49.38 45.6019 49.38 45.6102 49.38C45.6184 49.38 45.6294 49.38 45.6377 49.38C47.3702 49.38 49.1027 48.8052 50.5327 47.6502L70.9514 31.318C71.8397 30.6085 72.0927 29.3572 71.5592 28.3535" fill="white"/>
</svg>
