<svg width="138" height="138" viewBox="0 0 138 138" fill="none" xmlns="http://www.w3.org/2000/svg">
<path d="M41.3881 33.1596C36.0242 34.1933 31.2672 37.7231 28.4999 42.7854C24.9644 49.2513 24.8715 57.3845 28.0978 66.0032C31.1989 64.5654 35.2958 63.3098 40.1495 63.3098C49.1514 63.3098 55.0274 67.2664 55.274 67.4352C56.1389 68.027 56.3589 69.2105 55.7652 70.0735C55.1734 70.9346 53.9975 71.1546 53.1326 70.5686C53.0814 70.5344 47.9204 67.1033 40.1495 67.1033C35.0948 67.1033 30.9523 68.7155 28.1471 70.248C26.129 73.6754 25.4405 77.8785 26.4078 81.6397C27.4548 85.7044 30.2904 88.9174 34.4878 90.8558C32.8832 94.562 32.9875 98.291 34.8273 101.538C37.13 105.605 41.8433 108.349 47.0896 108.772C49.874 116.418 58.1399 116.418 61.7816 116.418C63.9685 116.418 65.9145 115.729 67.4774 114.571V23.0501C66.0397 22.0562 64.1677 21.582 61.7816 21.582C50.132 21.582 43.4783 28.1219 41.3881 33.1596ZM54.189 97.4469C53.142 97.4469 52.2923 96.601 52.2923 95.5521V95.5464C52.2923 91.1897 51.0196 83.6692 42.4863 82.2504C41.4526 82.0778 40.7546 81.1029 40.9272 80.0692C41.0979 79.0355 42.0652 78.3242 43.1084 78.5101C51.3553 79.8833 56.0858 86.0913 56.0858 95.5464C56.0858 96.5953 55.236 97.4469 54.189 97.4469ZM46.6135 51.9295C45.5666 51.9295 44.7168 51.0817 44.7168 50.0328C44.7168 48.9839 45.5666 48.1361 46.6135 48.1361C54.3465 48.1361 56.0858 43.9216 56.0858 42.4459C56.0858 41.397 56.9355 40.5492 57.9825 40.5492C59.0295 40.5492 59.8792 41.397 59.8792 42.4459C59.8792 45.0843 57.4969 51.9295 46.6135 51.9295Z" fill="#302CFF"/>
<mask id="mask0" mask-type="alpha" maskUnits="userSpaceOnUse" x="66" y="22" width="48" height="93">
<rect x="66.0039" y="22.0405" width="47.2369" height="92.5292" fill="#C4C4C4"/>
</mask>
<g mask="url(#mask0)">
<path opacity="0.4" d="M107.22 60.2735L102.392 58.5611C101.701 58.3153 101.068 57.9271 100.537 57.4216C100.005 56.916 99.5852 56.3044 99.3048 55.6264C99.0243 54.9483 98.8894 54.219 98.9088 53.4855C98.9282 52.752 99.1014 52.0307 99.4172 51.3684L101.614 46.7424C102.415 45.053 102.674 43.1572 102.356 41.3148C102.037 39.4725 101.156 37.7737 99.8341 36.4517C98.512 35.1296 96.8133 34.2488 94.971 33.9302C93.1286 33.6115 91.2327 33.8706 89.5434 34.6719L84.9174 36.8724C84.2547 37.1868 83.5334 37.3587 82.8001 37.3769C82.0669 37.3951 81.3379 37.2593 80.6604 36.9782C79.9829 36.6972 79.3719 36.2771 78.8669 35.7452C78.3618 35.2132 77.974 34.5813 77.7285 33.8901L76.0123 29.0657C75.3844 27.3046 74.227 25.7808 72.699 24.7033C71.1709 23.6259 69.3469 23.0475 67.4772 23.0475C65.6074 23.0475 63.7835 23.6259 62.2554 24.7033C60.7273 25.7808 59.57 27.3046 58.9421 29.0657L57.2259 33.8939C56.9799 34.5847 56.5918 35.2163 56.0866 35.7478C55.5814 36.2794 54.9704 36.699 54.2929 36.9797C53.6155 37.2604 52.8867 37.3959 52.1536 37.3774C51.4205 37.3589 50.6995 37.1869 50.037 36.8724L45.4109 34.6719C43.7216 33.8706 41.8258 33.6115 39.9834 33.9302C38.141 34.2488 36.4423 35.1296 35.1202 36.4517C33.7981 37.7737 32.9174 39.4725 32.5987 41.3148C32.2801 43.1572 32.5392 45.053 33.3405 46.7424L35.5372 51.3684C35.8524 52.0308 36.0251 52.752 36.0442 53.4853C36.0632 54.2186 35.9282 54.9478 35.6479 55.6257C35.3675 56.3035 34.948 56.9151 34.4166 57.4207C33.8851 57.9263 33.2535 58.3148 32.5625 58.5611L27.7343 60.2773C25.9727 60.9043 24.4484 62.0611 23.3705 63.5889C22.2925 65.1167 21.7139 66.9407 21.7139 68.8105C21.7139 70.6803 22.2925 72.5043 23.3705 74.0321C24.4484 75.56 25.9727 76.7168 27.7343 77.3437L32.5625 79.0599C33.2534 79.3058 33.8849 79.6939 34.4164 80.1991C34.9478 80.7044 35.3673 81.3156 35.6477 81.9932C35.928 82.6708 36.0631 83.3997 36.0441 84.1327C36.025 84.8658 35.8524 85.5867 35.5372 86.2488L33.3405 90.8749C32.5392 92.5642 32.2801 94.46 32.5987 96.3024C32.9174 98.1448 33.7981 99.8435 35.1202 101.166C36.4423 102.488 38.141 103.368 39.9834 103.687C41.8258 104.006 43.7216 103.747 45.4109 102.945L50.037 100.749C50.6993 100.433 51.4205 100.26 52.1539 100.241C52.8873 100.222 53.6166 100.357 54.2944 100.638C54.9721 100.919 55.5834 101.339 56.0884 101.871C56.5934 102.403 56.9809 103.036 57.2259 103.727L58.9421 108.551C59.57 110.313 60.7273 111.836 62.2554 112.914C63.7835 113.991 65.6074 114.57 67.4772 114.57C69.3469 114.57 71.1709 113.991 72.699 112.914C74.227 111.836 75.3844 110.313 76.0123 108.551L77.7285 103.723C77.9743 103.032 78.3624 102.401 78.8677 101.869C79.373 101.338 79.9842 100.919 80.6618 100.638C81.3393 100.358 82.0682 100.223 82.8013 100.242C83.5343 100.261 84.2552 100.433 84.9174 100.749L89.5434 102.945C91.2327 103.747 93.1286 104.006 94.971 103.687C96.8133 103.368 98.512 102.488 99.8341 101.166C101.156 99.8435 102.037 98.1448 102.356 96.3024C102.674 94.46 102.415 92.5642 101.614 90.8749L99.4172 86.2488C99.102 85.5867 98.9293 84.8658 98.9103 84.1327C98.8913 83.3997 99.0263 82.6708 99.3067 81.9932C99.5871 81.3156 100.007 80.7044 100.538 80.1991C101.069 79.6939 101.701 79.3058 102.392 79.0599L107.22 77.3399C108.982 76.7129 110.506 75.5562 111.584 74.0283C112.662 72.5005 113.241 70.6765 113.241 68.8067C113.241 66.9369 112.662 65.1129 111.584 63.5851C110.506 62.0572 108.982 60.9005 107.22 60.2735V60.2735ZM67.4772 87.0535C63.8751 87.0012 60.3639 85.9153 57.3614 83.9248C54.3588 81.9344 51.9912 79.1232 50.5404 75.8259C48.6853 71.3338 48.6874 66.2895 50.5462 61.799C52.405 57.3085 55.9689 53.7385 60.4561 51.8718C64.9533 50.0733 69.9753 50.1035 74.4505 51.956C78.9258 53.8086 82.4999 57.3367 84.4101 61.7875C86.2652 66.2796 86.2632 71.3239 84.4043 75.8144C82.5455 80.3049 78.9817 83.8749 74.4944 85.7416C72.2703 86.6564 69.8816 87.103 67.4772 87.0535V87.0535Z" fill="#302CFF"/>
</g>
<rect opacity="0.1" width="138" height="138" fill="#302CFF"/>
</svg>
