<svg width="85" height="85" viewBox="0 0 85 85" fill="none" xmlns="http://www.w3.org/2000/svg">
<rect width="85" height="85" fill="#FF0000"/>
<path d="M43.7125 60.7094L32.4755 60.5113C28.8372 60.4423 25.1898 60.5801 21.6229 59.8651C16.1967 58.7967 15.8123 53.5585 15.4101 49.1646C14.8558 42.9874 15.0704 36.698 16.1163 30.5724C16.7068 27.1352 19.0305 25.0842 22.6241 24.861C34.755 24.0511 46.9666 24.1471 59.0706 24.5249C60.349 24.5596 61.6361 24.7489 62.8966 24.9644C69.1187 26.0156 69.2705 31.9517 69.6738 36.9487C70.076 41.9973 69.9062 47.0719 69.1374 52.0861C68.5206 56.2378 67.3405 59.7194 62.3602 60.0555C56.1202 60.4949 50.0235 60.8488 43.766 60.7361C43.7662 60.7094 43.7303 60.7094 43.7125 60.7094ZM37.1062 50.1986C41.8085 47.5965 46.4211 45.0378 51.0966 42.4532C46.3855 39.8512 41.7816 37.2925 37.1062 34.7079V50.1986Z" fill="white"/>
</svg>
