<svg width="173" height="42" viewBox="0 0 173 42" fill="none" xmlns="http://www.w3.org/2000/svg">
<path d="M59.9755 20.1839C58.7215 22.2183 56.9379 23.3887 54.6249 23.3887C51.2808 23.3887 48.8284 20.6856 48.8284 17.2021C48.8284 13.7186 51.1693 11.0433 54.6806 11.0433C56.9101 11.0433 58.9165 12.2974 59.9198 14.1924L63.1524 11.6285C61.5082 8.70244 58.5264 6.94678 54.7364 6.94678C48.6612 6.94678 44.3975 11.4613 44.3975 17.2021C44.3975 22.9428 48.7448 27.4853 54.6806 27.4853C58.4149 27.4853 61.5361 25.5067 63.236 22.692L59.9755 20.1839Z" fill="#1D1C43"/>
<path d="M72.0884 12.5203C67.6295 12.5203 64.4248 15.753 64.4248 19.9889C64.4248 24.1969 67.6295 27.4853 72.0884 27.4853C76.5472 27.4853 79.752 24.1969 79.752 19.9889C79.752 15.753 76.5472 12.5203 72.0884 12.5203ZM72.0884 16.2825C74.0112 16.2825 75.4604 17.7594 75.4604 19.9889C75.4604 22.2183 74.0112 23.7231 72.0884 23.7231C70.1655 23.7231 68.7164 22.2183 68.7164 19.9889C68.7164 17.7594 70.1655 16.2825 72.0884 16.2825Z" fill="#1D1C43"/>
<path d="M82.5207 12.8547V27.1509H86.7566V19.7102C86.7566 17.843 87.7319 16.2546 89.5155 16.2546C91.0761 16.2546 92.0793 17.23 92.0793 19.0971V27.1509H96.3152V19.7102C96.3152 17.843 97.2906 16.2546 99.0741 16.2546C100.635 16.2546 101.61 17.23 101.61 19.0971V27.1509H105.846V18.4561C105.846 14.7497 103.756 12.5203 100.328 12.5203C97.9037 12.5203 96.5381 13.5793 95.507 15.0284C94.5317 13.44 92.9711 12.5203 90.7695 12.5203C88.9024 12.5203 87.509 13.2449 86.5894 14.694V12.8547H82.5207Z" fill="#1D1C43"/>
<path d="M116.96 16.2546C118.771 16.2546 120.276 17.7316 120.276 20.0446C120.276 22.274 118.771 23.751 116.96 23.751C115.064 23.751 113.588 22.3019 113.588 20.0446C113.588 17.7037 115.064 16.2546 116.96 16.2546ZM113.392 12.8547H109.463V32.7244H113.699V25.5903C114.591 26.9279 116.291 27.4853 117.823 27.4853C121.725 27.4853 124.54 24.2526 124.54 19.9889C124.54 15.5858 121.502 12.5203 117.851 12.5203C116.458 12.5203 114.507 13.1055 113.392 14.8333V12.8547Z" fill="#1D1C43"/>
<path d="M134.729 18.2611L130.827 19.0135C127.817 19.6544 126.173 21.1036 126.173 23.2215C126.173 25.7017 128.124 27.4853 130.911 27.4853C132.806 27.4853 134.199 26.6492 134.868 25.3952V27.1509H138.797V18.1496C138.797 14.6661 136.429 12.5203 132.443 12.5203C129.768 12.5203 127.622 13.635 126.313 15.2235L128.514 17.8988C129.378 16.9234 130.604 16.171 132.193 16.171C133.642 16.171 134.729 16.7283 134.729 18.1496V18.2611ZM131.858 24.3362C130.855 24.3362 130.214 23.7789 130.214 22.9707C130.214 22.1904 130.771 21.6888 131.914 21.4937L134.757 20.9364V21.3544C134.757 23.0543 133.614 24.3362 131.858 24.3362Z" fill="#1D1C43"/>
<path d="M142.365 12.8547V27.1509H146.601V19.7102C146.601 17.843 147.577 16.2546 149.416 16.2546C150.977 16.2546 151.98 17.23 151.98 19.0971V27.1509H156.216V18.4561C156.216 14.7497 154.098 12.5203 150.67 12.5203C148.747 12.5203 147.354 13.2449 146.434 14.694V12.8547H142.365Z" fill="#1D1C43"/>
<path d="M163.132 26.6214L162.965 27.0951C162.352 29.1295 161.321 29.4917 160.206 29.4917C159.732 29.4917 159.008 29.436 158.255 29.018V32.5293C158.896 32.8359 159.816 33.0588 160.819 33.0588C163.522 33.0588 165.25 31.7769 166.671 28.3213L172.914 12.8547H168.594L165.25 22.2183L161.934 12.8547H157.503L163.132 26.6214Z" fill="#1D1C43"/>
<g filter="url(#filter0_d)">
<path d="M18.9897 5.01123H14.5107C14.055 5.01123 13.6855 5.38067 13.6855 5.83639V29.5465C13.6855 30.0022 14.055 30.3716 14.5107 30.3716H18.9897C19.4454 30.3716 19.8148 30.0022 19.8148 29.5465V5.83639C19.8148 5.38067 19.4454 5.01123 18.9897 5.01123Z" fill="#302CFF"/>
</g>
<g filter="url(#filter1_d)">
<path d="M28.0382 30.3716C30.9157 30.3716 33.2483 28.039 33.2483 25.1615C33.2483 22.2841 30.9157 19.9514 28.0382 19.9514C25.1608 19.9514 22.8281 22.2841 22.8281 25.1615C22.8281 28.039 25.1608 30.3716 28.0382 30.3716Z" fill="#302CFF"/>
</g>
<path d="M28.0382 15.4314C30.9157 15.4314 33.2483 13.0988 33.2483 10.2213C33.2483 7.34387 30.9157 5.01123 28.0382 5.01123C25.1608 5.01123 22.8281 7.34387 22.8281 10.2213C22.8281 13.0988 25.1608 15.4314 28.0382 15.4314Z" fill="#070721"/>
<path d="M5.46206 30.3716C8.33952 30.3716 10.6722 28.039 10.6722 25.1615C10.6722 22.2841 8.33952 19.9514 5.46206 19.9514C2.5846 19.9514 0.251953 22.2841 0.251953 25.1615C0.251953 28.039 2.5846 30.3716 5.46206 30.3716Z" fill="#070721"/>
<defs>
<filter id="filter0_d" x="5.68555" y="0.0112305" width="22.1293" height="41.3604" filterUnits="userSpaceOnUse" color-interpolation-filters="sRGB">
<feFlood flood-opacity="0" result="BackgroundImageFix"/>
<feColorMatrix in="SourceAlpha" type="matrix" values="0 0 0 0 0 0 0 0 0 0 0 0 0 0 0 0 0 0 127 0"/>
<feOffset dy="3"/>
<feGaussianBlur stdDeviation="4"/>
<feColorMatrix type="matrix" values="0 0 0 0 0.187417 0 0 0 0 0.170833 0 0 0 0 1 0 0 0 0.2 0"/>
<feBlend mode="normal" in2="BackgroundImageFix" result="effect1_dropShadow"/>
<feBlend mode="normal" in="SourceGraphic" in2="effect1_dropShadow" result="shape"/>
</filter>
<filter id="filter1_d" x="14.8281" y="14.9514" width="26.4202" height="26.4202" filterUnits="userSpaceOnUse" color-interpolation-filters="sRGB">
<feFlood flood-opacity="0" result="BackgroundImageFix"/>
<feColorMatrix in="SourceAlpha" type="matrix" values="0 0 0 0 0 0 0 0 0 0 0 0 0 0 0 0 0 0 127 0"/>
<feOffset dy="3"/>
<feGaussianBlur stdDeviation="4"/>
<feColorMatrix type="matrix" values="0 0 0 0 0.187417 0 0 0 0 0.170833 0 0 0 0 1 0 0 0 0.2 0"/>
<feBlend mode="normal" in2="BackgroundImageFix" result="effect1_dropShadow"/>
<feBlend mode="normal" in="SourceGraphic" in2="effect1_dropShadow" result="shape"/>
</filter>
</defs>
</svg>
