<svg width="48" height="48" viewBox="0 0 48 48" fill="none" xmlns="http://www.w3.org/2000/svg">
<path d="M41.1867 47.87H6.8134C4.70326 47.87 2.99414 46.1609 2.99414 44.0507V21.1352C2.99414 19.025 4.70326 17.3159 6.8134 17.3159H41.1867C43.2969 17.3159 45.006 19.025 45.006 21.1352V44.0507C45.006 46.1609 43.2969 47.87 41.1867 47.87Z" fill="white"/>
<path fill-rule="evenodd" clip-rule="evenodd" d="M10.6327 13.4968C10.6327 6.11363 16.6169 0.129395 24.0001 0.129395C29.8238 0.129395 34.7579 3.85757 36.5917 9.0406C36.9434 10.0349 36.4226 11.126 35.4283 11.4778C34.4341 11.8296 33.3429 11.3087 32.9911 10.3145C31.6778 6.60246 28.1485 3.94865 24.0001 3.94865C18.7262 3.94865 14.4519 8.22295 14.4519 13.4968V19.2257C14.4519 20.2803 13.597 21.1353 12.5423 21.1353C11.4877 21.1353 10.6327 20.2803 10.6327 19.2257V13.4968Z" fill="white"/>
</svg>
